<?xml version="1.0" encoding="utf-8"?>
<!-- Generator: Adobe Illustrator 27.5.0, SVG Export Plug-In . SVG Version: 6.00 Build 0)  -->
<svg version="1.1" xmlns="http://www.w3.org/2000/svg" xmlns:xlink="http://www.w3.org/1999/xlink" x="0px" y="0px"
	 viewBox="0 0 750 500" style="enable-background:new 0 0 750 500;" xml:space="preserve">
<g id="BACKGROUND">
	<rect style="fill:#FFFFFF;" width="750" height="500"/>
</g>
<g id="OBJECTS">
	<g>
		<linearGradient id="SVGID_1_" gradientUnits="userSpaceOnUse" x1="367.1618" y1="431.967" x2="367.1618" y2="-73.6152">
			<stop  offset="0.3692" style="stop-color:#B5B4E0"/>
			<stop  offset="0.8761" style="stop-color:#6765BF"/>
		</linearGradient>
		<path style="fill:url(#SVGID_1_);" d="M468.496,446.502C356.64,457.246,151.578,469.37,80.903,377.604
			c-94.394-122.562,34.953-268.049,170.229-312.853C447.536-0.298,604.273,46.115,666.7,173.891
			C733.799,311.23,612.973,432.625,468.496,446.502z"/>
		<g>
			<defs>
				<path id="SVGID_00000080172328550671699690000007126054694129646752_" d="M468.496,446.502
					C356.64,457.246,151.578,469.37,80.903,377.604c-94.394-122.562,34.953-268.049,170.229-312.853
					C447.536-0.298,604.273,46.115,666.7,173.891C733.799,311.23,612.973,432.625,468.496,446.502z"/>
			</defs>
			<clipPath id="SVGID_00000121276271362292044530000014926795033849177502_">
				<use xlink:href="#SVGID_00000080172328550671699690000007126054694129646752_"  style="overflow:visible;"/>
			</clipPath>
			<g style="clip-path:url(#SVGID_00000121276271362292044530000014926795033849177502_);">
				<circle style="fill:#FFFFFF;" cx="177.753" cy="140.308" r="1.053"/>
				<path style="fill:#FFFFFF;" d="M390.322,190.428c0-0.581-0.471-1.053-1.053-1.053c-0.581,0-1.053,0.471-1.053,1.053
					c0,0.581,0.471,1.053,1.053,1.053C389.851,191.481,390.322,191.009,390.322,190.428z"/>
				<circle style="fill:#FFFFFF;" cx="218.366" cy="157.255" r="1.053"/>
				<circle style="fill:#FFFFFF;" cx="266.63" cy="233.769" r="1.053"/>
				<path style="fill:#FFFFFF;" d="M376.053,182.604c0-0.581-0.471-1.053-1.053-1.053c-0.581,0-1.053,0.471-1.053,1.053
					c0,0.581,0.471,1.053,1.053,1.053C375.581,183.657,376.053,183.186,376.053,182.604z"/>
				<path style="fill:#FFFFFF;" d="M432.088,164.536c0-0.581-0.471-1.053-1.053-1.053c-0.582,0-1.053,0.471-1.053,1.053
					c0,0.581,0.471,1.053,1.053,1.053C431.617,165.588,432.088,165.117,432.088,164.536z"/>
				<circle style="fill:#FFFFFF;" cx="263.472" cy="89.079" r="1.053"/>
				<circle style="fill:#FFFFFF;" cx="547.513" cy="192.534" r="1.053"/>
				<path style="fill:#FFFFFF;" d="M477.58,127.945c0-0.581-0.471-1.053-1.053-1.053c-0.581,0-1.053,0.471-1.053,1.053
					c0,0.581,0.471,1.053,1.053,1.053C477.109,128.998,477.58,128.526,477.58,127.945z"/>
				<path style="fill:#FFFFFF;" d="M448.437,64.448c0-0.581-0.471-1.053-1.053-1.053c-0.581,0-1.053,0.471-1.053,1.053
					c0,0.581,0.471,1.053,1.053,1.053C447.966,65.501,448.437,65.03,448.437,64.448z"/>
				<path style="fill:#FFFFFF;" d="M352.12,72.89c0-0.581-0.471-1.053-1.053-1.053c-0.581,0-1.053,0.471-1.053,1.053
					c0,0.581,0.471,1.053,1.053,1.053C351.648,73.943,352.12,73.471,352.12,72.89z"/>
				<path style="fill:#FFFFFF;" d="M343.996,205.451c0-0.581-0.471-1.053-1.053-1.053c-0.582,0-1.053,0.471-1.053,1.053
					s0.471,1.053,1.053,1.053C343.524,206.503,343.996,206.032,343.996,205.451z"/>
				<path style="fill:#FFFFFF;" d="M232.701,218.47c0-0.581-0.471-1.053-1.053-1.053c-0.581,0-1.053,0.471-1.053,1.053
					c0,0.581,0.471,1.053,1.053,1.053C232.23,219.523,232.701,219.052,232.701,218.47z"/>
				<path style="fill:#FFFFFF;" d="M266.63,144.916c0-0.581-0.471-1.053-1.053-1.053c-0.581,0-1.053,0.471-1.053,1.053
					s0.471,1.053,1.053,1.053C266.159,145.969,266.63,145.498,266.63,144.916z"/>
				<path style="fill:#FFFFFF;" d="M353.173,137.453c0-0.581-0.471-1.053-1.053-1.053c-0.582,0-1.053,0.471-1.053,1.053
					c0,0.581,0.471,1.053,1.053,1.053C352.701,138.506,353.173,138.035,353.173,137.453z"/>
				<path style="fill:#FFFFFF;" d="M602.989,177.372c0-0.581-0.471-1.053-1.053-1.053c-0.581,0-1.053,0.471-1.053,1.053
					c0,0.581,0.471,1.053,1.053,1.053C602.518,178.425,602.989,177.953,602.989,177.372z"/>
				<path style="fill:#FFFFFF;" d="M633.578,138.506c0-0.581-0.471-1.053-1.053-1.053c-0.581,0-1.053,0.471-1.053,1.053
					c0,0.581,0.471,1.053,1.053,1.053C633.107,139.559,633.578,139.087,633.578,138.506z"/>
				<path style="fill:#FFFFFF;" d="M553.932,90.132c0-0.581-0.471-1.053-1.053-1.053c-0.581,0-1.053,0.471-1.053,1.053
					c0,0.582,0.471,1.053,1.053,1.053C553.461,91.185,553.932,90.713,553.932,90.132z"/>
				<path style="fill:#FFFFFF;" d="M157.273,163.483c0-0.581-0.471-1.053-1.053-1.053c-0.581,0-1.053,0.471-1.053,1.053
					c0,0.581,0.471,1.053,1.053,1.053C156.801,164.536,157.273,164.064,157.273,163.483z"/>
				<g>
					
						<line style="fill:none;stroke:#FFFFFF;stroke-linecap:round;stroke-linejoin:round;stroke-miterlimit:10;" x1="503.599" y1="85.187" x2="503.599" y2="90.132"/>
					
						<line style="fill:none;stroke:#FFFFFF;stroke-linecap:round;stroke-linejoin:round;stroke-miterlimit:10;" x1="501.791" y1="87.659" x2="505.407" y2="87.659"/>
				</g>
				<g>
					
						<line style="fill:none;stroke:#FFFFFF;stroke-linecap:round;stroke-linejoin:round;stroke-miterlimit:10;" x1="418.901" y1="112.78" x2="418.901" y2="117.725"/>
					
						<line style="fill:none;stroke:#FFFFFF;stroke-linecap:round;stroke-linejoin:round;stroke-miterlimit:10;" x1="417.094" y1="115.253" x2="420.709" y2="115.253"/>
				</g>
				<g>
					
						<line style="fill:none;stroke:#FFFFFF;stroke-linecap:round;stroke-linejoin:round;stroke-miterlimit:10;" x1="386.409" y1="58.451" x2="386.409" y2="63.396"/>
					
						<line style="fill:none;stroke:#FFFFFF;stroke-linecap:round;stroke-linejoin:round;stroke-miterlimit:10;" x1="384.602" y1="60.923" x2="388.217" y2="60.923"/>
				</g>
				<g>
					
						<line style="fill:none;stroke:#FFFFFF;stroke-linecap:round;stroke-linejoin:round;stroke-miterlimit:10;" x1="575.56" y1="147.745" x2="575.56" y2="152.69"/>
					
						<line style="fill:none;stroke:#FFFFFF;stroke-linecap:round;stroke-linejoin:round;stroke-miterlimit:10;" x1="573.753" y1="150.217" x2="577.368" y2="150.217"/>
				</g>
				<g>
					
						<line style="fill:none;stroke:#FFFFFF;stroke-linecap:round;stroke-linejoin:round;stroke-miterlimit:10;" x1="289.143" y1="123" x2="289.143" y2="127.945"/>
					
						<line style="fill:none;stroke:#FFFFFF;stroke-linecap:round;stroke-linejoin:round;stroke-miterlimit:10;" x1="287.335" y1="125.473" x2="290.951" y2="125.473"/>
				</g>
				<g>
					
						<line style="fill:none;stroke:#FFFFFF;stroke-linecap:round;stroke-linejoin:round;stroke-miterlimit:10;" x1="295.775" y1="205.451" x2="295.775" y2="210.396"/>
					
						<line style="fill:none;stroke:#FFFFFF;stroke-linecap:round;stroke-linejoin:round;stroke-miterlimit:10;" x1="293.967" y1="207.923" x2="297.582" y2="207.923"/>
				</g>
				<g>
					
						<line style="fill:none;stroke:#FFFFFF;stroke-linecap:round;stroke-linejoin:round;stroke-miterlimit:10;" x1="180.613" y1="115.253" x2="180.613" y2="120.198"/>
					
						<line style="fill:none;stroke:#FFFFFF;stroke-linecap:round;stroke-linejoin:round;stroke-miterlimit:10;" x1="178.806" y1="117.725" x2="182.421" y2="117.725"/>
				</g>
			</g>
			
				<linearGradient id="SVGID_00000023992675454358068730000002313354815727369636_" gradientUnits="userSpaceOnUse" x1="726.8965" y1="190.5764" x2="478.4572" y2="212.7302">
				<stop  offset="0" style="stop-color:#FFFFFF"/>
				<stop  offset="1" style="stop-color:#FFFFFF;stop-opacity:0"/>
			</linearGradient>
			
				<path style="opacity:0.45;clip-path:url(#SVGID_00000121276271362292044530000014926795033849177502_);fill:url(#SVGID_00000023992675454358068730000002313354815727369636_);" d="
				M703.704,276.087c-14.671,13.174-37.052,13.649-56.047,8.362c-18.995-5.287-36.317-15.41-55.113-21.366
				c-18.797-5.956-40.843-7.132-56.826,4.414c-4.941-9.02-2.157-17.893,3.517-22.636c5.674-4.743,13.367-6.22,20.74-6.799
				c7.374-0.578,14.91-0.446,21.973-2.64c19.708-6.12,29.61-27.647,45.157-41.217c19.898-17.368,50.926-20.552,72.368-7.295
				C697.922,218.798,698.943,250.812,703.704,276.087z M644.904,162.421c2.646-7.853-5.659-12.439-13.504-15.106
				c-7.846-2.668-16.722-2.92-23.478-7.718c-5.187-3.685-8.335-9.519-12.459-14.364c-6.825-8.016-17.153-13.511-27.647-12.678
				c-10.494,0.831-20.502,8.994-21.684,19.454c-0.405,3.581,0.038,7.626-2.318,10.352c-3.664,4.239-10.411,1.863-15.877,0.627
				c-12.347-2.794-26.17,3.132-32.66,14C531.9,154.47,600.207,150.675,644.904,162.421z"/>
			
				<linearGradient id="SVGID_00000129180441730524159010000003412322233712038047_" gradientUnits="userSpaceOnUse" x1="108.2227" y1="135.7784" x2="453.9808" y2="213.3168">
				<stop  offset="0" style="stop-color:#FFFFFF"/>
				<stop  offset="1" style="stop-color:#FFFFFF;stop-opacity:0"/>
			</linearGradient>
			
				<path style="opacity:0.45;clip-path:url(#SVGID_00000121276271362292044530000014926795033849177502_);fill:url(#SVGID_00000129180441730524159010000003412322233712038047_);" d="
				M439.22,271.121c0.524-7.171-7.654-11.979-14.83-12.437c-7.175-0.457-14.556,1.525-21.477-0.422
				c-10.11-2.844-16.091-12.988-24.385-19.431c-15.925-12.374-38.293-9.993-58.411-8.585c-20.119,1.408-43.746-0.457-55.049-17.161
				c-11.985-17.712-1.855-43.859,16.456-54.91c18.309-11.052,41.474-10.224,62.33-5.489c20.857,4.735,40.924,12.993,61.357,16.128
				c1.193-10.63-8.267-19.531-17.986-23.995c-9.72-4.464-20.731-6.616-29.01-13.388c-12.082-9.885-15.175-26.725-21.849-40.837
				c-14.496-30.652-50.123-49.797-83.684-44.969c-28.512,4.101-53.268,23.264-81.861,26.754c-18.171,2.217-36.798-2.075-54.806,1.22
				c-32.858,6.012-56.734,36.699-64.988,69.067s-3.958,66.45,2.206,108.342c33.689-12.207,71.144-5.116,105.539,4.935
				c34.394,10.05,68.821,23.072,104.648,22.426c34.391-0.621,68.449-13.895,102.462-8.765
				C389.397,273.149,414.503,285.117,439.22,271.121z"/>
			<g style="clip-path:url(#SVGID_00000121276271362292044530000014926795033849177502_);">
				<g>
					<polygon style="opacity:0.2;fill:#FFED65;" points="886.45,264.998 886.45,257.9 485.427,262.9 485.439,264.998 
						485.427,267.095 886.45,272.095 					"/>
					<polygon style="opacity:0.2;fill:#FFED65;" points="872.786,161.208 870.949,154.353 484.885,262.975 485.439,264.998 
						485.971,267.026 874.623,168.064 					"/>
					<polygon style="opacity:0.2;fill:#FFED65;" points="832.725,64.492 829.176,58.346 484.38,263.187 485.439,264.998 
						486.478,266.82 836.274,70.638 					"/>
					<polygon style="opacity:0.2;fill:#FFED65;" points="768.997,-18.56 763.978,-23.579 483.948,263.523 485.439,264.998 
						486.914,266.489 774.015,-13.542 					"/>
					<polygon style="opacity:0.2;fill:#FFED65;" points="685.945,-82.288 679.798,-85.837 483.617,263.959 485.439,264.998 
						487.249,266.056 692.091,-78.74 					"/>
					<polygon style="opacity:0.2;fill:#FFED65;" points="589.228,-122.35 582.373,-124.186 483.41,264.466 485.439,264.998 
						487.462,265.552 596.084,-120.513 					"/>
					<polygon style="opacity:0.2;fill:#FFED65;" points="485.439,-136.014 478.342,-136.014 483.341,265.009 485.439,264.998 
						487.536,265.009 492.536,-136.014 					"/>
					<polygon style="opacity:0.2;fill:#FFED65;" points="381.65,-122.35 374.794,-120.513 483.416,265.552 485.439,264.998 
						487.468,264.466 388.505,-124.187 					"/>
					<polygon style="opacity:0.2;fill:#FFED65;" points="284.933,-82.288 278.787,-78.74 483.628,266.056 485.439,264.998 
						487.261,263.959 291.08,-85.837 					"/>
					<polygon style="opacity:0.2;fill:#FFED65;" points="201.881,-18.56 196.863,-13.542 483.964,266.489 485.439,264.998 
						486.93,263.523 206.9,-23.579 					"/>
					<polygon style="opacity:0.2;fill:#FFED65;" points="138.153,64.492 134.604,70.638 484.4,266.82 485.439,264.998 
						486.497,263.187 141.702,58.346 					"/>
					<polygon style="opacity:0.2;fill:#FFED65;" points="98.092,161.208 96.255,168.064 484.907,267.026 485.439,264.998 
						485.993,262.975 99.929,154.353 					"/>
					<polygon style="opacity:0.2;fill:#FFED65;" points="84.428,264.998 84.428,272.095 485.45,267.095 485.439,264.998 
						485.45,262.9 84.428,257.9 					"/>
				</g>
				<g>
					<path style="opacity:0.3;fill:#FFF065;" d="M510.863,206.912c30.012,13.154,45.608,52.128,32.959,82.355
						c-12.651,30.228-51.358,46.475-81.793,34.333c-30.436-12.143-47.328-50.573-35.696-81.207
						C437.963,211.76,476.974,192.057,510.863,206.912z"/>
					<path style="opacity:0.3;fill:#FFF065;" d="M500.068,231.461c17.272,7.571,26.249,30.001,18.968,47.397
						c-7.281,17.397-29.557,26.749-47.073,19.761c-17.517-6.989-27.239-29.106-20.545-46.738
						C458.113,234.252,480.564,222.913,500.068,231.461z"/>
					<path style="opacity:0.3;fill:#FFF065;" d="M494.053,245.147c10.171,4.458,15.457,17.667,11.17,27.912
						c-4.288,10.246-17.406,15.752-27.723,11.636c-10.315-4.115-16.04-17.139-12.099-27.523
						C469.345,246.79,482.567,240.112,494.053,245.147z"/>
					<path style="fill:#FFF982;" d="M491.563,250.809c7.234,3.171,10.993,12.564,7.944,19.85
						c-3.05,7.286-12.379,11.202-19.715,8.275c-7.336-2.926-11.407-12.189-8.604-19.572
						C473.992,251.978,483.395,247.229,491.563,250.809z"/>
				</g>
			</g>
		</g>
		<g>
			<defs>
				<path id="SVGID_00000080922742534299166120000018356265011597612728_" d="M468.496,446.502
					C356.64,457.246,151.578,469.37,80.903,377.604c-94.394-122.562,34.953-268.049,170.229-312.853
					C447.536-0.298,604.273,46.115,666.7,173.891C733.799,311.23,612.973,432.625,468.496,446.502z"/>
			</defs>
			<clipPath id="SVGID_00000150809341503453660580000007986433944366159526_">
				<use xlink:href="#SVGID_00000080922742534299166120000018356265011597612728_"  style="overflow:visible;"/>
			</clipPath>
			<g style="clip-path:url(#SVGID_00000150809341503453660580000007986433944366159526_);">
				<path style="fill:#3C3B7B;" d="M427.679,277.486c-30.436-20.745-67.696-31.292-104.488-29.577
					c-20.115,0.938-40.529,5.393-60.15,0.866c-27.766-6.405-48.185-29.225-71.954-44.942
					c-35.226-23.292-80.317-31.087-120.817-16.54c-21.082,32.876-31.003,72.771-24.076,117.368
					C169.827,282.068,296.361,275.399,427.679,277.486z"/>
				<path style="fill:#37367B;" d="M318.551,256.184c-16.565,0.459-32.822,5.053-49.39,5.33
					c-26.381,0.443-51.704-10.042-75.046-22.342c-23.342-12.299-45.813-26.683-70.805-35.142
					c-19.421-6.573-41.061-9.185-60.817-3.295c-3.999,7.699-7.41,15.73-10.174,24.065c18.019-6.452,38.396-5.768,57.141-1.116
					c21.963,5.451,42.292,15.908,62.695,25.695c20.403,9.786,41.469,19.094,63.915,21.969c21.053,2.698,42.352-0.382,63.54-1.654
					c21.187-1.273,43.326-0.534,62.924,4.647C353.363,260.541,335.115,255.724,318.551,256.184z"/>
				<path style="opacity:0.21;fill:#FFFFFF;" d="M427.563,277.408c-30.414-20.692-67.626-31.212-104.372-29.499
					c-20.115,0.938-40.529,5.393-60.15,0.866c-27.766-6.405-48.185-29.225-71.954-44.942
					c-35.226-23.292-80.317-31.087-120.817-16.54c-0.697,1.087-1.38,2.182-2.052,3.284c23.492-1.583,48.579,2.275,67.431,11.544
					c18.485,9.089,30.239,23.346,48,33.777c55.648,32.684,139.542,12.011,191.128,25.402c8.944,2.322,16.991,8.228,22.477,15.868
					c10.08,0.053,20.184,0.155,30.32,0.316C427.57,277.459,427.566,277.433,427.563,277.408z"/>
			</g>
			<g style="clip-path:url(#SVGID_00000150809341503453660580000007986433944366159526_);">
				<path style="fill:#6262A6;" d="M43.86,309.416c216.655-29.161,436.375-35.499,654.351-18.877
					c0.766-3.158,2.913-22.217,2.913-22.217c-40.873,13.267-82.209-20.36-125.159-21.755c-24.866-0.808-48.604,9.264-72.843,14.87
					c-68.46,15.83-140.143-4.139-210.157,1.807c-23.897,2.028-47.429,7.069-71.206,10.199c-39.651,5.222-80.002,5.103-119.622-0.35
					c-23.213-3.195-50.835-6.739-68.146,13.009C35.441,293.602,36.89,301.101,43.86,309.416z"/>
				<g>
					<path style="fill:#5A5AA6;" d="M476.735,273.425c23.299-0.197,46.784-2.897,69.496-5.509
						c17.889-2.057,36.386-4.184,54.617-5.061c14.222-0.686,27.514-0.499,39.93,0.568c-5.727-1.881-11.473-3.917-17.242-5.905
						c-7.371-0.153-15.009-0.039-22.928,0.343c-18.398,0.887-36.979,3.022-54.948,5.089c-22.582,2.597-45.934,5.281-68.968,5.476
						c-9.305,0.08-18.683-0.25-28.055-0.819c-51.491,0.951-104.035-8.747-155.673-4.361c-3.955,0.336-7.9,0.76-11.838,1.238
						c-11.378,2.182-22.649,4.827-33.702,7.424c-25.152,5.91-51.16,12.021-77.224,12.274c-12.326,0.132-24.884-1.074-37.028-2.229
						c-11.755-1.119-23.907-2.249-35.968-2.262c-18.038,0.022-42.079,3.135-60.74,16.638c0.528,1.572,1.166,3.161,1.951,4.771
						c17.719-13.349,41.218-16.388,58.796-16.409c0.071,0,0.14,0,0.211,0c11.748,0,23.71,1.138,35.278,2.239
						c12.272,1.168,24.965,2.374,37.55,2.252c26.618-0.259,52.901-6.435,78.318-12.407c18.962-4.455,38.569-9.063,58.105-11.151
						c32.492-3.475,65.76-0.108,97.932,3.147C428.214,271.158,452.635,273.628,476.735,273.425z"/>
					<path style="fill:#9494D9;" d="M700.608,272.791c-2.096-0.932-4.231-1.819-6.401-2.665c-3.828,0.77-7.66,1.17-11.497,1.262
						c6.034,1.899,11.787,4.106,17.274,6.618C700.213,276.136,700.428,274.328,700.608,272.791z"/>
				</g>
				<path style="opacity:0.21;fill:#FFFFFF;" d="M575.965,246.567c-24.866-0.808-48.604,9.264-72.843,14.87
					c-68.46,15.83-140.143-4.139-210.157,1.807c-23.897,2.028-47.429,7.069-71.206,10.199c-39.651,5.222-80.002,5.103-119.622-0.35
					c-17.352-2.388-37.165-4.967-53.295,2.128c33.698,5.33,67.596,10.383,101.688,9.753c59.625-1.102,117.941-19.542,177.57-20.341
					c71.229-0.954,143.108,23.229,212.701,8.021c24.087-5.265,47.829-15.231,72.403-13.231c18.45,1.502,35.649,9.67,53.729,13.644
					c10.936,2.405,23.07,2.87,33.668-0.201c0.314-2.671,0.525-4.546,0.525-4.546C660.251,281.589,618.915,247.962,575.965,246.567z"
					/>
			</g>
		</g>
		<g>
			<defs>
				<path id="SVGID_00000052070103485361670450000012302790164246535062_" d="M468.496,446.502
					C356.64,457.246,151.578,469.37,80.903,377.604c-94.394-122.562,34.953-268.049,170.229-312.853
					C447.536-0.298,604.273,46.115,666.7,173.891C733.799,311.23,612.973,432.625,468.496,446.502z"/>
			</defs>
			<clipPath id="SVGID_00000109750543024544725040000007407031752640302252_">
				<use xlink:href="#SVGID_00000052070103485361670450000012302790164246535062_"  style="overflow:visible;"/>
			</clipPath>
			<g style="clip-path:url(#SVGID_00000109750543024544725040000007407031752640302252_);">
				<path style="fill:#9897DB;" d="M696.586,282.155c-219.834-14.254-440.983-8.17-661.639,21.412
					c18.78,55.388,62.435,100.189,113.741,128.262c51.307,28.071,109.867,40.631,168.174,45.172
					c75.189,5.855,152.709-1.502,221.567-32.26C607.289,413.984,666.737,357.962,696.586,282.155z"/>
				<path style="fill:#8D8CDB;" d="M575.077,276.377c-22.353-0.676-44.717-1.135-67.088-1.377
					c-20.828,2.785-41.422,7.226-60.807,11.597c-42.515,9.585-84.473,22.465-127.811,27.073
					c-93.445,9.935-189.239-18.972-281.191-1.329c1.285,3.259,2.658,6.477,4.112,9.656c68.759-18.07,136.592-1.018,202.693,2.125
					c71.667,3.407,142.967-9.813,213.491-23.012C496.027,294.081,537.127,283.796,575.077,276.377z"/>
				<path style="opacity:0.45;fill:#FFFFFF;" d="M34.946,303.568c2.54,7.491,5.55,14.782,8.957,21.871
					c118.058-28.291,241.369-34.523,361.672-18.225c34.274,4.642,68.79,11.11,103.208,7.673
					c32.469-3.241,63.358-15.159,95.132-22.592c28.974-6.776,60.478-9.532,87.956,1.061c1.637-3.688,3.222-7.413,4.714-11.201
					C476.752,267.901,255.603,273.985,34.946,303.568z"/>
			</g>
		</g>
		<g>
			<defs>
				<path id="SVGID_00000150824247076133386000000016490404950687190428_" d="M468.496,446.502
					C356.64,457.246,151.578,469.37,80.903,377.604c-94.394-122.562,34.953-268.049,170.229-312.853
					C447.536-0.298,604.273,46.115,666.7,173.891C733.799,311.23,612.973,432.625,468.496,446.502z"/>
			</defs>
			<clipPath id="SVGID_00000127035307480871771380000012421158943593084289_">
				<use xlink:href="#SVGID_00000150824247076133386000000016490404950687190428_"  style="overflow:visible;"/>
			</clipPath>
			<g style="clip-path:url(#SVGID_00000127035307480871771380000012421158943593084289_);">
				<path style="fill:#C2BADB;" d="M576.432,313.098l-44.519,0.318c0.769-10.94,2.372-22.001,4.569-33.064
					c7.657-9.16,14.248-19.199,19.618-29.854c-5.183,1.712-9.732,3.844-14.082,6.118c3.438-12.973,7.469-25.846,11.665-38.401
					c8.908,22.166,15.411,45.277,19.387,68.826l-14.917-5.645c5.217,8.381,11.061,16.367,17.487,23.869
					C575.937,307.868,576.201,310.483,576.432,313.098z"/>
				<g>
					<defs>
						<path id="SVGID_00000005960987391971072350000005333722646456593054_" d="M576.432,313.098l-44.519,0.318
							c0.769-10.94,2.372-22.001,4.569-33.064c7.657-9.16,14.248-19.199,19.618-29.854c-5.183,1.712-9.732,3.844-14.082,6.118
							c3.438-12.973,7.469-25.846,11.665-38.401c8.908,22.166,15.411,45.277,19.387,68.826l-14.917-5.645
							c5.217,8.381,11.061,16.367,17.487,23.869C575.937,307.868,576.201,310.483,576.432,313.098z"/>
					</defs>
					<clipPath id="SVGID_00000059269677205474693160000000877465747604541107_">
						<use xlink:href="#SVGID_00000005960987391971072350000005333722646456593054_"  style="overflow:visible;"/>
					</clipPath>
					<g style="clip-path:url(#SVGID_00000059269677205474693160000000877465747604541107_);">
						
							<path style="fill:none;stroke:#2E2854;stroke-width:0.75;stroke-linecap:round;stroke-linejoin:round;stroke-miterlimit:10;" d="
							M567.129,242.066c0,0-17.802,46.746-23.736,74.802"/>
						
							<path style="fill:none;stroke:#2E2854;stroke-width:0.75;stroke-linecap:round;stroke-linejoin:round;stroke-miterlimit:10;" d="
							M537.854,269.267c0,0,10.258,12.219,13.239,19.212"/>
						
							<path style="fill:none;stroke:#2E2854;stroke-width:0.75;stroke-linecap:round;stroke-linejoin:round;stroke-miterlimit:10;" d="
							M569.634,255.846c0,0-4.739,2.554-9.952,6.75"/>
					</g>
				</g>
				<path style="opacity:0.12;fill:#292940;" d="M575.641,305.266c-3.272-3.82-6.39-7.766-9.354-11.825
					c-11.265,0.61-22.233,1.543-32.53,2.848c-0.816,5.73-1.445,11.445-1.844,17.127l44.519-0.318
					C576.201,310.483,575.937,307.868,575.641,305.266z"/>
			</g>
			<g style="clip-path:url(#SVGID_00000127035307480871771380000012421158943593084289_);">
				<path style="fill:#C2BADB;" d="M395.006,353.339l-44.519,0.319c0.571-8.019,1.582-16.091,2.944-24.186
					c8.348-8.14,15.51-17.477,21.211-27.647c-5.734,1.108-11.116,2.658-16.4,4.306c3.899-16.126,8.82-32.129,14.016-47.673
					C384.428,288.74,392.128,320.825,395.006,353.339z"/>
				<g>
					<defs>
						<path id="SVGID_00000078753797787084940540000003873121342860437420_" d="M395.006,353.339l-44.519,0.319
							c0.571-8.019,1.582-16.091,2.944-24.186c8.348-8.14,15.51-17.477,21.211-27.647c-5.734,1.108-11.116,2.658-16.4,4.306
							c3.899-16.126,8.82-32.129,14.016-47.673C384.428,288.74,392.128,320.825,395.006,353.339z"/>
					</defs>
					<clipPath id="SVGID_00000129175097723396084560000014389953106561543816_">
						<use xlink:href="#SVGID_00000078753797787084940540000003873121342860437420_"  style="overflow:visible;"/>
					</clipPath>
					<g style="clip-path:url(#SVGID_00000129175097723396084560000014389953106561543816_);">
						
							<path style="fill:none;stroke:#2E2854;stroke-width:0.75;stroke-linecap:round;stroke-linejoin:round;stroke-miterlimit:10;" d="
							M381.116,277.068c0,0-0.94,52.347-9.767,78.855"/>
						
							<path style="fill:none;stroke:#2E2854;stroke-width:0.75;stroke-linecap:round;stroke-linejoin:round;stroke-miterlimit:10;" d="
							M388.822,299.485c0,0-6.445,15.205-10.834,22.701"/>
					</g>
				</g>
				<path style="opacity:0.12;fill:#292940;" d="M350.486,353.657l44.52-0.318c-0.677-7.643-1.63-15.26-2.834-22.837
					c-12.91,3.513-26.34,7.097-40.452,10.66C351.201,345.338,350.782,349.505,350.486,353.657z"/>
			</g>
			<g style="clip-path:url(#SVGID_00000127035307480871771380000012421158943593084289_);">
				<path style="fill:#C2BADB;" d="M122.886,349.339l-44.519,0.319c0.571-8.019,1.582-16.091,2.944-24.186
					c8.348-8.14,15.51-17.477,21.211-27.647c-5.734,1.108-11.116,2.658-16.399,4.306c3.899-16.126,8.82-32.129,14.016-47.673
					C112.308,284.74,120.008,316.825,122.886,349.339z"/>
				<g>
					<defs>
						<path id="SVGID_00000114778350630590288350000017595730855548022951_" d="M122.886,349.339l-44.519,0.319
							c0.571-8.019,1.582-16.091,2.944-24.186c8.348-8.14,15.51-17.477,21.211-27.647c-5.734,1.108-11.116,2.658-16.399,4.306
							c3.899-16.126,8.82-32.129,14.016-47.673C112.308,284.74,120.008,316.825,122.886,349.339z"/>
					</defs>
					<clipPath id="SVGID_00000093896135096557462890000016565302594060178870_">
						<use xlink:href="#SVGID_00000114778350630590288350000017595730855548022951_"  style="overflow:visible;"/>
					</clipPath>
					<g style="clip-path:url(#SVGID_00000093896135096557462890000016565302594060178870_);">
						
							<path style="fill:none;stroke:#2E2854;stroke-width:0.75;stroke-linecap:round;stroke-linejoin:round;stroke-miterlimit:10;" d="
							M108.996,273.068c0,0-0.94,52.347-9.767,78.855"/>
						
							<path style="fill:none;stroke:#2E2854;stroke-width:0.75;stroke-linecap:round;stroke-linejoin:round;stroke-miterlimit:10;" d="
							M116.701,295.485c0,0-6.445,15.205-10.834,22.701"/>
					</g>
				</g>
				<path style="opacity:0.12;fill:#292940;" d="M78.366,349.657l44.519-0.318c-0.022-0.247-0.05-0.493-0.072-0.739
					c-16.433-2.828-31.247-5.96-43.512-8.824C78.925,343.076,78.6,346.372,78.366,349.657z"/>
			</g>
			<g style="clip-path:url(#SVGID_00000127035307480871771380000012421158943593084289_);">
				<path style="fill:#6069CC;" d="M261.705,377.516l-44.519,0.319c2.23-31.735,11.468-64.39,21.771-95.201
					c3.976,9.897,7.48,19.991,10.479,30.218c-3.681-1.79-7.348-3.581-11.028-5.371c4.284,7.864,9.403,14.697,15.169,20.77
					c2.351,9.645,4.261,19.399,5.723,29.219c-6.426-3.79-13.016-7.469-20.266-10.743c6.151,10.082,13.697,19.321,22.353,27.373
					C261.496,375.231,261.606,376.373,261.705,377.516z"/>
				<g>
					<defs>
						<path id="SVGID_00000058586249338795813500000012029905302988926387_" d="M261.705,377.516l-44.519,0.319
							c2.23-31.735,11.468-64.39,21.771-95.201c3.976,9.897,7.48,19.991,10.479,30.218c-3.681-1.79-7.348-3.581-11.028-5.371
							c4.284,7.864,9.403,14.697,15.169,20.77c2.351,9.645,4.261,19.399,5.723,29.219c-6.426-3.79-13.016-7.469-20.266-10.743
							c6.151,10.082,13.697,19.321,22.353,27.373C261.496,375.231,261.606,376.373,261.705,377.516z"/>
					</defs>
					<clipPath id="SVGID_00000059298496815785177380000013540775995527956878_">
						<use xlink:href="#SVGID_00000058586249338795813500000012029905302988926387_"  style="overflow:visible;"/>
					</clipPath>
					<g style="clip-path:url(#SVGID_00000059298496815785177380000013540775995527956878_);">
						
							<path style="fill:none;stroke:#2E2854;stroke-width:0.75;stroke-linecap:round;stroke-linejoin:round;stroke-miterlimit:10;" d="
							M231.812,295.318c0,0,4.003,57.949,4.826,87.828"/>
						
							<path style="fill:none;stroke:#2E2854;stroke-width:0.75;stroke-linecap:round;stroke-linejoin:round;stroke-miterlimit:10;" d="
							M247.241,316.483c0,0-7.121,11.68-12.956,17.708"/>
						
							<path style="fill:none;stroke:#2E2854;stroke-width:0.75;stroke-linecap:round;stroke-linejoin:round;stroke-miterlimit:10;" d="
							M221.988,335.538c0,0,6.806,18.752,13.952,29.552"/>
					</g>
				</g>
				<g style="opacity:0.12;">
					<path style="fill:#292940;" d="M261.386,374.1c-5.735-5.335-10.97-11.2-15.647-17.476c-8.681,0.617-17.453,0.904-26.229,0.919
						c-1.047,6.788-1.851,13.561-2.324,20.292l44.519-0.319C261.606,376.373,261.496,375.231,261.386,374.1z"/>
					<path style="fill:#292940;" d="M259.299,357.469c-0.103-0.689-0.224-1.374-0.331-2.063c-0.897,0.101-1.792,0.206-2.691,0.3
						C257.288,356.291,258.297,356.878,259.299,357.469z"/>
				</g>
			</g>
			<g style="clip-path:url(#SVGID_00000127035307480871771380000012421158943593084289_);">
				<path style="fill:#C2BADB;" d="M154.283,369.541c2.222-31.735,11.463-64.383,21.764-95.199
					c12.176,30.285,19.872,62.367,22.758,94.881L154.283,369.541z"/>
				<g>
					<defs>
						<path id="SVGID_00000151505322172975023920000006871965084841992887_" d="M154.283,369.541
							c2.222-31.735,11.463-64.383,21.764-95.199c12.176,30.285,19.872,62.367,22.758,94.881L154.283,369.541z"/>
					</defs>
					<clipPath id="SVGID_00000124877245221184984270000009905876501045709739_">
						<use xlink:href="#SVGID_00000151505322172975023920000006871965084841992887_"  style="overflow:visible;"/>
					</clipPath>
					<g style="clip-path:url(#SVGID_00000124877245221184984270000009905876501045709739_);">
						
							<path style="fill:none;stroke:#2E2854;stroke-width:0.75;stroke-linecap:round;stroke-linejoin:round;stroke-miterlimit:10;" d="
							M164.853,293.389c0,0,21.099,44.308,24,81.231"/>
						
							<path style="fill:none;stroke:#2E2854;stroke-width:0.75;stroke-linecap:round;stroke-linejoin:round;stroke-miterlimit:10;" d="
							M187.468,281.323c0,0-11.007,18.771-13.976,32.693"/>
					</g>
				</g>
				<path style="opacity:0.12;fill:#292940;" d="M197.496,357.037c-14.15-0.66-28.109-1.921-41.512-3.551
					c-0.741,5.369-1.327,10.726-1.701,16.056l44.523-0.318C198.444,365.154,198.007,361.09,197.496,357.037z"/>
			</g>
			<g style="clip-path:url(#SVGID_00000127035307480871771380000012421158943593084289_);">
				<path style="fill:#6069CC;" d="M355.522,369.465l-44.519,0.319c2.23-31.734,11.467-64.378,21.771-95.201
					c4.723,11.764,8.777,23.803,12.138,36.028c-2.977-2.175-6.162-4.25-9.798-6.096c3.79,8.293,8.513,16.147,14.06,23.385
					C352.161,341.61,354.281,355.493,355.522,369.465z"/>
				<g>
					<defs>
						<path id="SVGID_00000013184044189595390120000006423430903085864630_" d="M355.522,369.465l-44.519,0.319
							c2.23-31.734,11.467-64.378,21.771-95.201c4.723,11.764,8.777,23.803,12.138,36.028c-2.977-2.175-6.162-4.25-9.798-6.096
							c3.79,8.293,8.513,16.147,14.06,23.385C352.161,341.61,354.281,355.493,355.522,369.465z"/>
					</defs>
					<clipPath id="SVGID_00000167370820876554204350000013066801971609722261_">
						<use xlink:href="#SVGID_00000013184044189595390120000006423430903085864630_"  style="overflow:visible;"/>
					</clipPath>
					
						<path style="clip-path:url(#SVGID_00000167370820876554204350000013066801971609722261_);fill:none;stroke:#2E2854;stroke-width:0.75;stroke-linecap:round;stroke-linejoin:round;stroke-miterlimit:10;" d="
						M326.593,276.581c0,0,6.399,61.484,5.08,100.781"/>
				</g>
				<path style="opacity:0.12;fill:#292940;" d="M311.003,369.784l44.519-0.318c-0.843-9.489-2.101-18.936-3.752-28.317
					c-12.309,3.108-25.143,6.196-38.578,9.205C312.211,356.852,311.456,363.337,311.003,369.784z"/>
			</g>
			<g style="clip-path:url(#SVGID_00000127035307480871771380000012421158943593084289_);">
				<path style="fill:#6069CC;" d="M622.398,310.987l-44.519,0.319c2.23-31.734,11.468-64.379,21.771-95.201
					c4.723,11.764,8.776,23.803,12.138,36.029c-2.977-2.175-6.163-4.251-9.798-6.096c3.79,8.293,8.513,16.147,14.06,23.386
					C619.036,283.131,621.157,297.016,622.398,310.987z"/>
				<g>
					<defs>
						<path id="SVGID_00000176758488842447895750000017875584633964695970_" d="M622.398,310.987l-44.519,0.319
							c2.23-31.734,11.468-64.379,21.771-95.201c4.723,11.764,8.776,23.803,12.138,36.029c-2.977-2.175-6.163-4.251-9.798-6.096
							c3.79,8.293,8.513,16.147,14.06,23.386C619.036,283.131,621.157,297.016,622.398,310.987z"/>
					</defs>
					<clipPath id="SVGID_00000054245706239439707870000002648824555796085632_">
						<use xlink:href="#SVGID_00000176758488842447895750000017875584633964695970_"  style="overflow:visible;"/>
					</clipPath>
					<g style="clip-path:url(#SVGID_00000054245706239439707870000002648824555796085632_);">
						
							<path style="fill:none;stroke:#2E2854;stroke-width:0.75;stroke-linecap:round;stroke-linejoin:round;stroke-miterlimit:10;" d="
							M586.764,235.607c0,0,13.846,43.383,16.615,82.548"/>
						
							<path style="fill:none;stroke:#2E2854;stroke-width:0.75;stroke-linecap:round;stroke-linejoin:round;stroke-miterlimit:10;" d="
							M614.456,261.782c0,0-9.163,13.863-14.867,26.811"/>
					</g>
				</g>
				<path style="opacity:0.12;fill:#292940;" d="M580.175,291.194c-1.033,6.727-1.827,13.44-2.296,20.112l44.519-0.319
					c-0.61-6.868-1.436-13.715-2.469-20.53C606.706,290.325,593.263,290.546,580.175,291.194z"/>
			</g>
			<g style="clip-path:url(#SVGID_00000127035307480871771380000012421158943593084289_);">
				<path style="fill:#D3D3F0;" d="M686.213,314.491c-57.799-24.274-123.74-19.818-184.954-6.296
					c-61.213,13.522-120.462,35.619-182.311,45.846c-89.836,14.855-181.703,4.179-270.687-2.604
					c26.97,38.331,66.869,66.34,110.073,84.509c43.204,18.167,89.773,27.033,136.335,32.382c72.369,8.313,146.938,8.21,216.565-13.2
					C580.863,433.716,645.41,389.016,686.213,314.491z"/>
				<g>
					<path style="fill:#CACAF0;" d="M608.035,297.555c-33.709,35.947-81.513,58.847-131.619,65.328
						c-36.492,4.72-73.779,1.016-110.084,7.007c-40.528,6.688-77.985,25.111-116.083,40.467
						c-29.485,11.885-60.693,22.121-92.899,25.167c0.329,0.139,0.656,0.284,0.985,0.422c6.795,2.857,13.681,5.46,20.629,7.879
						c66.435-24.829,133.554-48.591,203.418-60.33c54.966-9.236,111.116-10.931,165.611-22.627
						c42.843-9.196,85.702-25.592,119.027-53.301C647.911,301.702,628.109,298.576,608.035,297.555z"/>
					<path style="fill:#CACAF0;" d="M354.017,472.975c53.188,2.029,106.513-2.255,157.218-17.847
						c61.509-18.916,119.041-56.022,159.753-115.792c-39.56,27.979-81.247,56.503-129.235,62.802
						c-29.193,3.832-59.237-0.868-88.049,5.195C413.23,415.851,380.768,444.082,354.017,472.975z"/>
				</g>
				<path style="opacity:0.45;fill:#FFFFFF;" d="M501.259,308.196c-61.213,13.522-120.462,35.619-182.311,45.846
					c-89.836,14.855-181.703,4.179-270.687-2.604c3.197,4.544,6.582,8.938,10.127,13.193c77.992,16.993,159.32,18.573,237.901,4.538
					c56.093-10.018,111.367-23.831,167.394-34.217c68.2-12.642,147.847-23.7,212.879-4.118c3.341-5.287,6.571-10.719,9.65-16.343
					C628.414,290.218,562.473,294.674,501.259,308.196z"/>
				<path style="opacity:0.12;fill:#292940;" d="M343.473,440.539c-91.335,2.491-224.437-58.799-277.003-87.67
					c-6.081-0.488-12.152-0.969-18.208-1.43c26.97,38.331,66.869,66.34,110.073,84.509c43.204,18.167,89.773,27.033,136.335,32.382
					c72.369,8.313,146.938,8.21,216.565-13.2c69.628-21.412,134.174-66.113,174.977-140.637
					c-10.422-4.377-21.113-7.807-31.989-10.431C573.228,428.405,459.516,437.374,343.473,440.539z"/>
			</g>
			<g style="clip-path:url(#SVGID_00000127035307480871771380000012421158943593084289_);">
				<path style="fill:#6069CC;" d="M686.213,290.808c-8.529-6.408-20.672-7.609-30.29-2.996
					c-9.618,4.615-16.284,14.835-16.626,25.498c-0.855-3.781-0.589-6.178-0.817-8.495c-0.227-2.314-1.193-4.845-3.343-5.735
					c-1.536-0.636-3.362-0.249-4.738,0.684c-1.378,0.933-2.362,2.343-3.134,3.816c-2.691,5.143-3.051,11.145-3.357,16.941
					c-10.196-6.717-24.997-5.317-35.21,2.561c-10.213,7.879-15.322,21.84-12.608,34.449c-3.86-4.467-6.904-8.061-10.597-10.776
					c-1.633-1.202-3.737-2.268-5.613-1.5c-2.432,0.996-2.795,4.299-2.337,6.888c1.445,8.181,6.98,14.951,12.319,21.314
					c-3.644-4.475-9.06-7.61-14.901-8.953c-1.371-0.316-2.809-0.534-4.179-0.209c-1.369,0.326-2.661,1.304-2.994,2.671
					c-0.505,2.071,1.235,3.966,2.893,5.307c4.488,3.634,9.529,6.583,14.895,8.717c-13.309-1.868-27.598,5.001-34.163,16.731
					c-6.565,11.73-4.948,27.503,5.462,38.706c13.45-4.279,26.075-10.79,38.392-17.681c25.201-14.097,49.678-30.111,69.647-50.97
					C664.883,346.916,680.204,320.784,686.213,290.808z"/>
				<path style="opacity:0.21;fill:#FFFFFF;" d="M655.922,287.811c-9.618,4.615-16.284,14.835-16.626,25.498
					c-0.855-3.781-0.589-6.178-0.817-8.495c-0.227-2.314-1.193-4.845-3.343-5.735c-1.536-0.636-3.362-0.249-4.738,0.684
					c-1.378,0.933-2.362,2.343-3.133,3.816c-2.691,5.143-3.051,11.145-3.358,16.941c-10.196-6.717-24.997-5.317-35.21,2.561
					c-10.213,7.879-15.322,21.84-12.608,34.449c-3.86-4.467-6.904-8.061-10.597-10.776c-1.633-1.202-3.737-2.268-5.613-1.5
					c-2.432,0.996-2.795,4.299-2.337,6.888c1.445,8.181,6.98,14.951,12.318,21.314c-3.644-4.475-9.06-7.61-14.901-8.953
					c-1.371-0.316-2.809-0.534-4.179-0.209c-1.369,0.326-2.661,1.304-2.994,2.671c-0.505,2.071,1.235,3.966,2.893,5.307
					c4.488,3.634,9.529,6.583,14.895,8.717c-13.309-1.868-27.598,5.001-34.163,16.731c-6.565,11.73-4.948,27.503,5.462,38.706
					c0.366-0.116,0.724-0.251,1.089-0.371c-5.353-11.106-5.634-24.312,0.038-34.58c6.419-11.622,20.087-18.804,33.22-17.09
					c-0.584-4.353,2.406-8.908,6.129-10.043c-1.443-2.561-1.703-5.758-0.693-8.517c1.009-2.76,3.27-5.036,7.013-6.737
					c-3.796-6.494-2.837-15.146,1.459-21.322c4.297-6.175,11.479-9.974,18.899-11.21c7.421-1.235,15.075-0.105,21.808,2.787
					c0.636-3.835,3.059-7.336,6.426-9.28c3.367-1.945,7.609-2.296,11.909-0.75c-0.001-6.473,4.072-12.578,9.677-15.814
					c5.607-3.236,12.509-3.795,18.821-2.363c3.475,0.788,6.778,2.155,9.899,3.881c1.437-4.636,2.675-9.367,3.646-14.209
					C677.683,284.4,665.541,283.199,655.922,287.811z"/>
				<g>
					<defs>
						<path id="SVGID_00000117635585784930971030000006728953917237935498_" d="M686.213,290.808
							c-8.529-6.408-20.672-7.609-30.29-2.996c-9.618,4.615-16.284,14.835-16.626,25.498c-0.855-3.781-0.589-6.178-0.817-8.495
							c-0.227-2.314-1.193-4.845-3.343-5.735c-1.536-0.636-3.362-0.249-4.738,0.684c-1.378,0.933-2.362,2.343-3.134,3.816
							c-2.691,5.143-3.051,11.145-3.357,16.941c-10.196-6.717-24.997-5.317-35.21,2.561c-10.213,7.879-15.322,21.84-12.608,34.449
							c-3.86-4.467-6.904-8.061-10.597-10.776c-1.633-1.202-3.737-2.268-5.613-1.5c-2.432,0.996-2.795,4.299-2.337,6.888
							c1.445,8.181,6.98,14.951,12.319,21.314c-3.644-4.475-9.06-7.61-14.901-8.953c-1.371-0.316-2.809-0.534-4.179-0.209
							c-1.369,0.326-2.661,1.304-2.994,2.671c-0.505,2.071,1.235,3.966,2.893,5.307c4.488,3.634,9.529,6.583,14.895,8.717
							c-13.309-1.868-27.598,5.001-34.163,16.731c-6.565,11.73-4.948,27.503,5.462,38.706c13.45-4.279,26.075-10.79,38.392-17.681
							c25.201-14.097,49.678-30.111,69.647-50.97C664.883,346.916,680.204,320.784,686.213,290.808z"/>
					</defs>
					<clipPath id="SVGID_00000136397203410091368790000005616142242546938284_">
						<use xlink:href="#SVGID_00000117635585784930971030000006728953917237935498_"  style="overflow:visible;"/>
					</clipPath>
					<g style="clip-path:url(#SVGID_00000136397203410091368790000005616142242546938284_);">
						
							<path style="fill:none;stroke:#2E2854;stroke-width:0.75;stroke-linecap:round;stroke-linejoin:round;stroke-miterlimit:10;" d="
							M519.462,385.285c0,0,30.659,22.945,54.198,47.473"/>
						
							<path style="fill:none;stroke:#2E2854;stroke-width:0.75;stroke-linecap:round;stroke-linejoin:round;stroke-miterlimit:10;" d="
							M538.912,375.461c0,0,7.858,18.505,11.907,35.56"/>
					</g>
					
						<path style="clip-path:url(#SVGID_00000136397203410091368790000005616142242546938284_);fill:none;stroke:#2E2854;stroke-width:0.75;stroke-linecap:round;stroke-linejoin:round;stroke-miterlimit:10;" d="
						M556.451,343.944c0,0,32.835,30.33,52.088,61.978"/>
					<g style="clip-path:url(#SVGID_00000136397203410091368790000005616142242546938284_);">
						
							<path style="fill:none;stroke:#2E2854;stroke-width:0.75;stroke-linecap:round;stroke-linejoin:round;stroke-miterlimit:10;" d="
							M611.836,310.318c0.198,0.593,0.172,47.903,12.449,87.941"/>
						
							<path style="fill:none;stroke:#2E2854;stroke-width:0.75;stroke-linecap:round;stroke-linejoin:round;stroke-miterlimit:10;" d="
							M582.495,323.358c0,0,18.092,17.441,32.222,27.321"/>
						
							<path style="fill:none;stroke:#2E2854;stroke-width:0.75;stroke-linecap:round;stroke-linejoin:round;stroke-miterlimit:10;" d="
							M575.44,338.603c0,0,13.198,1.464,22.769-0.999"/>
					</g>
					<g style="clip-path:url(#SVGID_00000136397203410091368790000005616142242546938284_);">
						
							<path style="fill:none;stroke:#2E2854;stroke-width:0.75;stroke-linecap:round;stroke-linejoin:round;stroke-miterlimit:10;" d="
							M626.693,297.301c0,0,10.856,35.88,36.768,56.987"/>
						
							<path style="fill:none;stroke:#2E2854;stroke-width:0.75;stroke-linecap:round;stroke-linejoin:round;stroke-miterlimit:10;" d="
							M621.923,310.318c0,0,2.835,1.936,11.307,3.243"/>
					</g>
					<g style="clip-path:url(#SVGID_00000136397203410091368790000005616142242546938284_);">
						
							<path style="fill:none;stroke:#2E2854;stroke-width:0.75;stroke-linecap:round;stroke-linejoin:round;stroke-miterlimit:10;" d="
							M642.891,289.785c0,0,15.429,13.609,38.769,42.291"/>
						
							<path style="fill:none;stroke:#2E2854;stroke-width:0.75;stroke-linecap:round;stroke-linejoin:round;stroke-miterlimit:10;" d="
							M653.967,282.455c0,0,16.942,22.879,24.592,45.843"/>
					</g>
				</g>
				<path style="opacity:0.12;fill:#292940;" d="M649.55,332.471c-17.934-1.319-20.571,11.868-20.571,11.868
					c-33.837-1.372-31.121,31.742-31.121,31.742c-15.033,1.94-17.407,16.786-17.407,16.786c-33.477,6.24-35.854,32.129-35.695,40.75
					c10.543-4.083,20.63-9.345,30.511-14.872c25.201-14.097,49.678-30.111,69.647-50.97c14.56-15.208,26.629-33.231,34.439-53.492
					C654.697,308.505,649.55,332.471,649.55,332.471z"/>
			</g>
			<g style="clip-path:url(#SVGID_00000127035307480871771380000012421158943593084289_);">
				<path style="fill:#6069CC;" d="M275.014,470.513c15.034-2.657,28.096-14.366,32.374-29.02c2.041-6.996,2.148-14.71-0.66-21.435
					c-2.808-6.725-8.756-12.288-15.902-13.723c-7.145-1.436-15.233,1.787-18.693,8.201c-2.104-5.961-3.132-10.564-4.753-14.949
					c-0.467-1.264-1.096-2.629-2.338-3.156c-1.839-0.78-3.856,0.725-4.988,2.371c-2.9,4.216-3.209,9.633-3.421,14.745
					c-6.828-8.52-16.044-13.447-25.547-13.834c-9.502-0.387-19.089,3.773-25.297,10.976c4.438-13.282,0.724-28.309-8.898-37.786
					c-9.621-9.477-24.702-12.966-37.507-8.677c4.031-5.584,8.302-10.524,11.051-16.208c1.349-2.791,2.165-6.555-0.114-8.656
					c-1.504-1.387-3.795-1.439-5.821-1.156c-6.093,0.855-11.815,4.121-15.649,8.932c2.949-4.957,5.483-10.775,6.018-16.789
					c0.205-2.296-0.003-4.907-1.742-6.421c-2.289-1.993-5.852-1.005-8.542,0.402c-9.454,4.945-16.67,13.99-19.394,24.305
					c-10.875-10.211-24.397-17.135-38.694-19.378c-14.295-2.244-29.289,0.204-42.493,7.745c22.616,38.641,57.287,69.48,96.483,91.12
					C179.684,449.763,223.507,479.614,275.014,470.513z"/>
				<g>
					<defs>
						<path id="SVGID_00000062885007266491020180000004674577974621792899_" d="M275.014,470.513
							c15.034-2.657,28.096-14.366,32.374-29.02c2.041-6.996,2.148-14.71-0.66-21.435c-2.808-6.725-8.756-12.288-15.902-13.723
							c-7.145-1.436-15.233,1.787-18.693,8.201c-2.104-5.961-3.132-10.564-4.753-14.949c-0.467-1.264-1.096-2.629-2.338-3.156
							c-1.839-0.78-3.856,0.725-4.988,2.371c-2.9,4.216-3.209,9.633-3.421,14.745c-6.828-8.52-16.044-13.447-25.547-13.834
							c-9.502-0.387-19.089,3.773-25.297,10.976c4.438-13.282,0.724-28.309-8.898-37.786c-9.621-9.477-24.702-12.966-37.507-8.677
							c4.031-5.584,8.302-10.524,11.051-16.208c1.349-2.791,2.165-6.555-0.114-8.656c-1.504-1.387-3.795-1.439-5.821-1.156
							c-6.093,0.855-11.815,4.121-15.649,8.932c2.949-4.957,5.483-10.775,6.018-16.789c0.205-2.296-0.003-4.907-1.742-6.421
							c-2.289-1.993-5.852-1.005-8.542,0.402c-9.454,4.945-16.67,13.99-19.394,24.305c-10.875-10.211-24.397-17.135-38.694-19.378
							c-14.295-2.244-29.289,0.204-42.493,7.745c22.616,38.641,57.287,69.48,96.483,91.12
							C179.684,449.763,223.507,479.614,275.014,470.513z"/>
					</defs>
					<clipPath id="SVGID_00000076604069061992965950000017039306762133497765_">
						<use xlink:href="#SVGID_00000062885007266491020180000004674577974621792899_"  style="overflow:visible;"/>
					</clipPath>
					<g style="clip-path:url(#SVGID_00000076604069061992965950000017039306762133497765_);">
						
							<path style="fill:none;stroke:#2E2854;stroke-width:0.75;stroke-linecap:round;stroke-linejoin:round;stroke-miterlimit:10;" d="
							M193.32,362.554c0,0-31.385,45.099-43.253,77.011"/>
						
							<path style="fill:none;stroke:#2E2854;stroke-width:0.75;stroke-linecap:round;stroke-linejoin:round;stroke-miterlimit:10;" d="
							M207.562,377.785c0,0-22.979,12.96-34.83,16.964"/>
					</g>
					
						<path style="clip-path:url(#SVGID_00000076604069061992965950000017039306762133497765_);fill:none;stroke:#2E2854;stroke-width:0.75;stroke-linecap:round;stroke-linejoin:round;stroke-miterlimit:10;" d="
						M225.957,391.433c0,0,1.978,49.75-5.341,76.298"/>
					<g style="clip-path:url(#SVGID_00000076604069061992965950000017039306762133497765_);">
						
							<path style="fill:none;stroke:#2E2854;stroke-width:0.75;stroke-linecap:round;stroke-linejoin:round;stroke-miterlimit:10;" d="
							M261.957,387.081c0,0,0.989,41.539,5.143,92.176"/>
						
							<path style="fill:none;stroke:#2E2854;stroke-width:0.75;stroke-linecap:round;stroke-linejoin:round;stroke-miterlimit:10;" d="
							M244.946,401.059c0,0,7.56,35.879,20.89,61.786"/>
						
							<path style="fill:none;stroke:#2E2854;stroke-width:0.75;stroke-linecap:round;stroke-linejoin:round;stroke-miterlimit:10;" d="
							M292.814,403.103c0,0-16.861,20.901-28.507,36.461"/>
					</g>
					<g style="clip-path:url(#SVGID_00000076604069061992965950000017039306762133497765_);">
						
							<path style="fill:none;stroke:#2E2854;stroke-width:0.75;stroke-linecap:round;stroke-linejoin:round;stroke-miterlimit:10;" d="
							M119.935,339.015c0,0-5.538,39.363-15.231,75.165"/>
						
							<path style="fill:none;stroke:#2E2854;stroke-width:0.75;stroke-linecap:round;stroke-linejoin:round;stroke-miterlimit:10;" d="
							M112.608,380.511c0,0-13.469-29.062-17.991-55.738"/>
					</g>
					
						<path style="clip-path:url(#SVGID_00000076604069061992965950000017039306762133497765_);fill:none;stroke:#2E2854;stroke-width:0.75;stroke-linecap:round;stroke-linejoin:round;stroke-miterlimit:10;" d="
						M78.397,324.774c0,0,0.593,32.835-6.33,56.967"/>
				</g>
				<path style="opacity:0.21;fill:#FFFFFF;" d="M286.232,466.691c10.017-5.146,17.991-14.36,21.155-25.198
					c2.041-6.996,2.148-14.71-0.66-21.435c-2.808-6.725-8.756-12.288-15.902-13.723c-7.145-1.436-15.233,1.787-18.693,8.201
					c-2.104-5.961-3.132-10.563-4.753-14.949c-0.467-1.264-1.096-2.629-2.338-3.156c-1.839-0.78-3.856,0.725-4.988,2.371
					c-2.9,4.216-3.209,9.633-3.421,14.745c-6.828-8.52-16.044-13.447-25.547-13.834c-9.502-0.387-19.089,3.773-25.297,10.976
					c4.438-13.282,0.724-28.309-8.898-37.786c-9.621-9.477-24.702-12.966-37.507-8.677c4.031-5.584,8.302-10.524,11.051-16.208
					c1.349-2.791,2.165-6.555-0.115-8.656c-1.504-1.387-3.795-1.439-5.821-1.156c-6.093,0.855-11.815,4.121-15.649,8.932
					c2.949-4.957,5.483-10.775,6.018-16.789c0.205-2.296-0.003-4.907-1.742-6.421c-2.289-1.993-5.852-1.005-8.542,0.402
					c-9.454,4.945-16.67,13.99-19.393,24.305c-10.875-10.211-24.398-17.135-38.694-19.378c-14.295-2.244-29.289,0.205-42.493,7.745
					c0.327,0.559,0.665,1.11,0.997,1.665c11.304-4.852,23.91-6.667,36.114-5.103c14.29,1.832,27.951,8.271,38.458,18.127
					c2.731,2.561,5.657,5.531,9.398,5.644c4.968,0.151,8.922-4.858,13.892-4.894c4.198-0.029,7.673,3.686,8.8,7.731
					c1.126,4.044,0.449,8.344-0.235,12.487c13.314-5.601,29.884-3.991,40.719,5.561c10.834,9.552,14.257,27.162,7.845,41.176
					c7.235-4.401,14.627-8.866,22.871-10.8c8.245-1.934,17.638-0.948,24.018,4.621c3.133,2.733,6.772,6.772,10.557,5.052
					c1.751-0.795,2.944-2.742,4.849-3.012c1.974-0.279,3.64,1.363,5.498,2.085c5.245,2.038,10.303-3.373,15.819-4.485
					c6.506-1.311,12.951,3.977,15.005,10.289c2.056,6.311,0.724,13.211-1.249,19.548
					C294.732,451.141,290.962,459.22,286.232,466.691z"/>
				<path style="opacity:0.12;fill:#292940;" d="M256.617,430.598c-31.385-17.67-61.714,2.637-61.714,2.637
					s-2.901-16.352-18.459-29.539c-15.558-13.187-37.717-6.198-37.717-6.198s-0.264-24.659-31.385-41.011
					c-22.833-11.997-45.009-9.088-55.209-6.687c22.391,32.693,53.589,59.129,88.354,78.323
					c38.029,20.995,80.413,49.717,129.944,43.099C274.669,460.465,277.535,442.375,256.617,430.598z"/>
			</g>
		</g>
		<g>
			<defs>
				<path id="SVGID_00000080928763890332576100000010913676115192221877_" d="M468.496,446.502
					C356.64,457.246,151.578,469.37,80.903,377.604c-94.394-122.562,34.953-268.049,170.229-312.853
					C447.536-0.298,604.273,46.115,666.7,173.891C733.799,311.23,612.973,432.625,468.496,446.502z"/>
			</defs>
			<clipPath id="SVGID_00000031925114019526184160000015138131544979820433_">
				<use xlink:href="#SVGID_00000080928763890332576100000010913676115192221877_"  style="overflow:visible;"/>
			</clipPath>
			<g style="clip-path:url(#SVGID_00000031925114019526184160000015138131544979820433_);">
				
					<path style="fill:none;stroke:#2E2854;stroke-width:0.75;stroke-linecap:round;stroke-linejoin:round;stroke-miterlimit:10;" d="
					M386.549,431.986c6.651,4.394,16.947,19.306,19.482,33.355"/>
				
					<path style="fill:none;stroke:#2E2854;stroke-width:0.75;stroke-linecap:round;stroke-linejoin:round;stroke-miterlimit:10;" d="
					M398.188,445.624c-2.063-4.339-4.293-11.89-4.173-16.692"/>
				<path style="fill:#2E2854;" d="M374.391,428.722c2.073,2.87,5.449,4.76,8.979,5.026c0.744,0.056,1.508,0.041,2.216-0.193
					c0.709-0.235,1.362-0.715,1.674-1.393c0.56-1.213-0.095-2.644-0.935-3.684c-1.792-2.218-4.514-3.659-7.355-3.895
					c-1.294-0.107-2.685,0.058-3.701,0.866C374.254,426.257,373.776,427.871,374.391,428.722z"/>
				<path style="fill:#2E2854;" d="M393.315,417.21c-2.143,2.493-2.949,6.072-2.083,9.245c0.218,0.795,0.544,1.579,1.101,2.187
					c0.557,0.606,1.376,1.013,2.195,0.923c1.002-0.111,1.783-0.907,2.363-1.731c1.204-1.711,1.916-3.742,2.183-5.817
					c0.158-1.233,0.156-2.52-0.294-3.679c-0.45-1.158-1.412-2.171-2.63-2.422C394.931,415.663,393.892,416.537,393.315,417.21z"/>
				<path style="fill:#6069CC;" d="M373.027,427.198c-0.477,0.128-0.94,0.413-1.145,0.861c-0.205,0.45-0.064,1.068,0.38,1.281
					c0.315,0.152,0.704,0.074,1.001-0.11c0.298-0.185,0.524-0.462,0.744-0.735c0.23,0.377,0.521,0.716,0.859,0.999
					c0.262,0.219,0.598,0.413,0.93,0.332c0.379-0.092,0.596-0.529,0.555-0.917c-0.04-0.389-0.276-0.728-0.535-1.021
					c-0.26-0.292-0.553-0.56-0.75-0.896c0.579-0.044,1.134-0.351,1.48-0.817c0.244-0.329,0.375-0.812,0.126-1.138
					c-0.214-0.282-0.62-0.329-0.973-0.293c-0.65,0.067-1.276,0.34-1.767,0.769c-0.095-0.467-0.201-0.957-0.511-1.317
					c-0.312-0.361-0.9-0.529-1.272-0.232c-0.33,0.264-0.353,0.759-0.273,1.174C372.018,425.867,372.394,426.548,373.027,427.198z"/>
				<path style="fill:#6069CC;" d="M395.586,415.143c-0.569-0.311-1.199-0.509-1.844-0.581c-0.195-0.021-0.413-0.024-0.564,0.101
					c-0.156,0.13-0.188,0.367-0.123,0.56c0.066,0.192,0.21,0.347,0.361,0.482c0.533,0.473,1.214,0.774,1.922,0.852
					c-0.321,0.388-0.656,0.81-0.704,1.311s0.337,1.074,0.838,1.018c0.251-0.029,0.461-0.202,0.637-0.385
					c0.427-0.442,0.75-0.982,0.937-1.567c0.367,0.336,0.764,0.688,1.255,0.771c0.492,0.084,1.084-0.231,1.099-0.729
					c0.012-0.418-0.368-0.743-0.75-0.918c-0.382-0.174-1.24-0.304-1.24-0.304c0.87-0.592,0.794-1.301,0.587-1.804
					c-0.208-0.503-0.847-0.701-1.238-0.426C396.315,413.837,395.942,414.286,395.586,415.143z"/>
			</g>
			<g style="clip-path:url(#SVGID_00000031925114019526184160000015138131544979820433_);">
				
					<path style="fill:none;stroke:#2E2854;stroke-width:0.75;stroke-linecap:round;stroke-linejoin:round;stroke-miterlimit:10;" d="
					M637.959,360.965c6.651,4.394,16.946,19.306,19.482,33.355"/>
				
					<path style="fill:none;stroke:#2E2854;stroke-width:0.75;stroke-linecap:round;stroke-linejoin:round;stroke-miterlimit:10;" d="
					M649.597,374.603c-2.063-4.339-4.293-11.89-4.173-16.693"/>
				<path style="fill:#2E2854;" d="M625.8,357.701c2.073,2.87,5.449,4.76,8.979,5.026c0.744,0.056,1.508,0.041,2.216-0.193
					c0.709-0.235,1.362-0.715,1.674-1.393c0.56-1.213-0.095-2.644-0.935-3.685c-1.792-2.218-4.514-3.659-7.356-3.895
					c-1.294-0.107-2.685,0.058-3.701,0.866C625.664,355.236,625.186,356.85,625.8,357.701z"/>
				<path style="fill:#2E2854;" d="M644.725,346.189c-2.143,2.493-2.949,6.073-2.083,9.245c0.218,0.795,0.544,1.579,1.101,2.187
					c0.557,0.606,1.376,1.013,2.195,0.923c1.002-0.111,1.783-0.907,2.363-1.731c1.204-1.711,1.916-3.742,2.183-5.817
					c0.158-1.233,0.156-2.52-0.294-3.679c-0.45-1.158-1.412-2.171-2.63-2.422C646.341,344.642,645.302,345.516,644.725,346.189z"/>
				<path style="fill:#6069CC;" d="M624.437,356.177c-0.477,0.128-0.94,0.413-1.145,0.861c-0.205,0.45-0.064,1.068,0.38,1.281
					c0.315,0.152,0.704,0.074,1.001-0.11c0.298-0.185,0.524-0.462,0.744-0.735c0.23,0.377,0.521,0.716,0.859,0.999
					c0.262,0.219,0.598,0.413,0.93,0.332c0.379-0.092,0.596-0.529,0.555-0.917c-0.04-0.389-0.276-0.728-0.535-1.021
					c-0.26-0.292-0.553-0.56-0.749-0.896c0.579-0.044,1.133-0.351,1.48-0.817c0.244-0.329,0.375-0.812,0.126-1.138
					c-0.214-0.282-0.62-0.329-0.973-0.293c-0.649,0.067-1.276,0.34-1.767,0.77c-0.095-0.467-0.201-0.957-0.511-1.317
					c-0.311-0.361-0.9-0.53-1.272-0.232c-0.33,0.264-0.353,0.759-0.273,1.174C623.428,354.846,623.804,355.526,624.437,356.177z"/>
				<path style="fill:#6069CC;" d="M646.995,344.121c-0.569-0.311-1.199-0.509-1.844-0.581c-0.195-0.021-0.413-0.024-0.564,0.101
					c-0.156,0.13-0.187,0.367-0.123,0.56c0.066,0.192,0.21,0.347,0.361,0.482c0.533,0.473,1.214,0.774,1.922,0.852
					c-0.321,0.388-0.656,0.81-0.704,1.311c-0.049,0.501,0.337,1.074,0.838,1.017c0.251-0.029,0.461-0.202,0.637-0.385
					c0.427-0.442,0.75-0.982,0.937-1.567c0.367,0.336,0.764,0.688,1.255,0.771c0.492,0.084,1.084-0.231,1.099-0.729
					c0.012-0.418-0.369-0.743-0.75-0.918c-0.382-0.174-1.24-0.304-1.24-0.304c0.87-0.592,0.794-1.302,0.587-1.804
					c-0.208-0.503-0.847-0.701-1.238-0.426C647.724,342.816,647.352,343.265,646.995,344.121z"/>
			</g>
			<g style="clip-path:url(#SVGID_00000031925114019526184160000015138131544979820433_);">
				
					<path style="fill:none;stroke:#2E2854;stroke-width:0.75;stroke-linecap:round;stroke-linejoin:round;stroke-miterlimit:10;" d="
					M329.078,434.118c2.484,7.575,1.289,25.656-5.449,38.241"/>
				
					<path style="fill:none;stroke:#2E2854;stroke-width:0.75;stroke-linecap:round;stroke-linejoin:round;stroke-miterlimit:10;" d="
					M329.728,452.035c1.078-4.681,4.021-11.985,7.098-15.674"/>
				<path style="fill:#2E2854;" d="M321.576,424.008c-0.159,3.537,1.314,7.115,3.915,9.516c0.548,0.506,1.156,0.969,1.856,1.225
					c0.702,0.257,1.511,0.286,2.177-0.051c1.193-0.603,1.568-2.131,1.556-3.468c-0.027-2.851-1.265-5.671-3.345-7.621
					c-0.948-0.888-2.14-1.623-3.438-1.62C323,421.991,321.623,422.959,321.576,424.008z"/>
				<path style="fill:#2E2854;" d="M343.558,426.74c-3.228,0.622-6.083,2.927-7.374,5.951c-0.323,0.758-0.555,1.576-0.496,2.397
					c0.06,0.821,0.449,1.649,1.147,2.086c0.854,0.536,1.961,0.397,2.927,0.111c2.006-0.593,3.826-1.743,5.324-3.203
					c0.89-0.868,1.687-1.878,2.054-3.066c0.367-1.187,0.242-2.579-0.557-3.532C345.786,426.532,344.429,426.571,343.558,426.74z"/>
				<path style="fill:#6069CC;" d="M321.454,421.966c-0.454-0.196-0.993-0.26-1.432-0.037c-0.44,0.225-0.714,0.797-0.498,1.24
					c0.153,0.315,0.505,0.495,0.853,0.536c0.348,0.04,0.698-0.036,1.04-0.114c-0.054,0.438-0.036,0.884,0.053,1.317
					c0.069,0.335,0.212,0.695,0.522,0.838c0.354,0.163,0.795-0.044,1.004-0.374c0.21-0.33,0.236-0.742,0.215-1.132
					c-0.022-0.39-0.085-0.782-0.031-1.168c0.481,0.325,1.106,0.429,1.668,0.279c0.395-0.107,0.798-0.403,0.806-0.813
					c0.008-0.354-0.282-0.643-0.58-0.834c-0.55-0.351-1.21-0.526-1.862-0.494c0.216-0.425,0.437-0.874,0.418-1.35
					c-0.02-0.476-0.377-0.974-0.853-0.971c-0.423,0.002-0.748,0.376-0.943,0.751C321.49,420.297,321.362,421.063,321.454,421.966z"
					/>
				<path style="fill:#6069CC;" d="M346.622,426.531c-0.253-0.597-0.624-1.144-1.084-1.601c-0.14-0.138-0.309-0.276-0.504-0.271
					c-0.203,0.005-0.375,0.171-0.445,0.363c-0.068,0.191-0.051,0.402-0.017,0.602c0.124,0.702,0.47,1.361,0.977,1.861
					c-0.493,0.105-1.017,0.227-1.366,0.59c-0.349,0.363-0.404,1.051,0.025,1.318c0.215,0.133,0.487,0.128,0.738,0.094
					c0.609-0.082,1.198-0.304,1.708-0.646c0.079,0.492,0.172,1.014,0.504,1.384c0.333,0.371,0.993,0.492,1.314,0.111
					c0.268-0.32,0.173-0.811-0.017-1.186c-0.191-0.373-0.783-1.008-0.783-1.008c1.049,0.076,1.43-0.527,1.581-1.049
					c0.149-0.523-0.228-1.076-0.706-1.102C348.004,425.96,347.433,426.081,346.622,426.531z"/>
			</g>
			<g style="clip-path:url(#SVGID_00000031925114019526184160000015138131544979820433_);">
				
					<path style="fill:none;stroke:#2E2854;stroke-width:0.75;stroke-linecap:round;stroke-linejoin:round;stroke-miterlimit:10;" d="
					M125.681,395.419c2.484,7.575,1.289,25.656-5.45,38.241"/>
				
					<path style="fill:none;stroke:#2E2854;stroke-width:0.75;stroke-linecap:round;stroke-linejoin:round;stroke-miterlimit:10;" d="
					M126.331,413.336c1.078-4.681,4.021-11.985,7.098-15.674"/>
				<path style="fill:#2E2854;" d="M118.18,385.308c-0.159,3.537,1.314,7.115,3.915,9.516c0.548,0.506,1.156,0.969,1.856,1.225
					c0.702,0.257,1.511,0.286,2.177-0.051c1.193-0.603,1.568-2.131,1.556-3.468c-0.027-2.851-1.265-5.671-3.346-7.621
					c-0.948-0.887-2.14-1.623-3.438-1.62C119.604,383.292,118.227,384.26,118.18,385.308z"/>
				<path style="fill:#2E2854;" d="M140.161,388.041c-3.228,0.622-6.083,2.927-7.374,5.951c-0.323,0.758-0.555,1.576-0.496,2.397
					c0.06,0.821,0.449,1.649,1.147,2.087c0.854,0.536,1.961,0.397,2.927,0.111c2.006-0.593,3.826-1.743,5.324-3.203
					c0.89-0.868,1.687-1.878,2.054-3.066c0.367-1.187,0.242-2.579-0.557-3.532C142.389,387.833,141.032,387.872,140.161,388.041z"/>
				<path style="fill:#6069CC;" d="M118.058,383.267c-0.454-0.196-0.993-0.26-1.432-0.037c-0.44,0.226-0.714,0.797-0.498,1.241
					c0.153,0.315,0.506,0.495,0.853,0.536c0.348,0.04,0.698-0.036,1.04-0.114c-0.055,0.438-0.037,0.884,0.053,1.317
					c0.069,0.335,0.212,0.695,0.522,0.838c0.354,0.163,0.795-0.044,1.004-0.374c0.21-0.33,0.236-0.742,0.215-1.132
					c-0.022-0.39-0.086-0.782-0.031-1.168c0.481,0.325,1.106,0.429,1.668,0.279c0.395-0.107,0.798-0.403,0.806-0.813
					c0.008-0.354-0.282-0.643-0.58-0.834c-0.55-0.351-1.21-0.526-1.862-0.494c0.216-0.425,0.437-0.874,0.418-1.35
					c-0.02-0.476-0.377-0.974-0.853-0.972c-0.423,0.002-0.748,0.376-0.943,0.751C118.094,381.597,117.965,382.364,118.058,383.267z"
					/>
				<path style="fill:#6069CC;" d="M143.225,387.832c-0.253-0.597-0.624-1.144-1.084-1.601c-0.14-0.138-0.309-0.276-0.504-0.271
					c-0.203,0.005-0.375,0.171-0.444,0.363c-0.068,0.191-0.051,0.402-0.017,0.602c0.124,0.702,0.47,1.361,0.977,1.861
					c-0.493,0.105-1.017,0.227-1.366,0.59c-0.35,0.363-0.404,1.051,0.025,1.318c0.215,0.133,0.487,0.128,0.738,0.094
					c0.609-0.082,1.198-0.304,1.708-0.646c0.079,0.492,0.172,1.014,0.504,1.384c0.334,0.371,0.993,0.492,1.314,0.111
					c0.269-0.32,0.173-0.812-0.017-1.186c-0.191-0.373-0.783-1.008-0.783-1.008c1.049,0.076,1.43-0.527,1.581-1.049
					c0.149-0.523-0.228-1.076-0.705-1.102C144.607,387.261,144.036,387.382,143.225,387.832z"/>
			</g>
			<g style="clip-path:url(#SVGID_00000031925114019526184160000015138131544979820433_);">
				
					<path style="fill:none;stroke:#2E2854;stroke-width:0.75;stroke-linecap:round;stroke-linejoin:round;stroke-miterlimit:10;" d="
					M431.763,426.818c-4.839,6.335-9.662,23.802-7.441,37.904"/>
				<path style="fill:#2E2854;" d="M442.174,419.741c-1.014,3.392-3.582,6.286-6.829,7.697c-0.684,0.297-1.41,0.534-2.156,0.546
					c-0.747,0.011-1.521-0.228-2.039-0.765c-0.928-0.962-0.779-2.529-0.327-3.787c0.964-2.683,3.061-4.939,5.667-6.095
					c1.187-0.526,2.555-0.828,3.78-0.398C441.493,417.368,442.475,418.735,442.174,419.741z"/>
				<path style="fill:#6069CC;" d="M442.961,417.853c0.493-0.036,1.024,0.082,1.365,0.437c0.342,0.358,0.411,0.988,0.062,1.335
					c-0.248,0.247-0.64,0.301-0.982,0.225c-0.342-0.076-0.647-0.264-0.945-0.45c-0.093,0.432-0.257,0.847-0.483,1.226
					c-0.176,0.293-0.429,0.587-0.769,0.619c-0.388,0.038-0.736-0.304-0.826-0.683c-0.09-0.38,0.022-0.778,0.17-1.14
					c0.15-0.361,0.338-0.71,0.413-1.092c-0.562,0.148-1.186,0.041-1.666-0.286c-0.338-0.231-0.621-0.643-0.493-1.033
					c0.109-0.337,0.478-0.514,0.823-0.596c0.635-0.15,1.316-0.098,1.921,0.146c-0.064-0.472-0.125-0.969,0.05-1.412
					c0.176-0.443,0.677-0.796,1.125-0.637c0.398,0.141,0.583,0.601,0.644,1.019C443.477,416.265,443.345,417.031,442.961,417.853z"
					/>
			</g>
			<g style="clip-path:url(#SVGID_00000031925114019526184160000015138131544979820433_);">
				
					<path style="fill:none;stroke:#2E2854;stroke-width:0.75;stroke-linecap:round;stroke-linejoin:round;stroke-miterlimit:10;" d="
					M579.825,400.765c-3.074,7.355-3.312,25.474,2.412,38.552"/>
				<path style="fill:#2E2854;" d="M588.102,391.279c-0.121,3.538-1.872,6.989-4.654,9.177c-0.586,0.461-1.229,0.874-1.947,1.074
					c-0.72,0.2-1.529,0.165-2.166-0.223c-1.141-0.695-1.395-2.248-1.277-3.58c0.252-2.84,1.709-5.553,3.937-7.333
					c1.015-0.81,2.262-1.449,3.555-1.343C586.841,389.157,588.138,390.23,588.102,391.279z"/>
				<path style="fill:#6069CC;" d="M588.384,389.254c0.468-0.16,1.011-0.181,1.431,0.077c0.421,0.26,0.648,0.851,0.398,1.276
					c-0.177,0.302-0.543,0.454-0.892,0.467c-0.35,0.013-0.692-0.091-1.028-0.196c0.02,0.441-0.033,0.885-0.156,1.308
					c-0.096,0.328-0.266,0.676-0.587,0.794c-0.365,0.135-0.789-0.107-0.972-0.452c-0.183-0.345-0.177-0.758-0.125-1.145
					c0.053-0.387,0.147-0.773,0.123-1.161c-0.506,0.286-1.137,0.34-1.685,0.146c-0.386-0.137-0.764-0.465-0.739-0.875
					c0.02-0.353,0.332-0.618,0.644-0.785c0.577-0.306,1.248-0.429,1.896-0.346c-0.182-0.44-0.367-0.906-0.31-1.378
					c0.058-0.473,0.453-0.941,0.927-0.901c0.421,0.035,0.716,0.434,0.881,0.823C588.481,387.586,588.548,388.361,588.384,389.254z"
					/>
			</g>
			<g style="clip-path:url(#SVGID_00000031925114019526184160000015138131544979820433_);">
				
					<path style="fill:none;stroke:#2E2854;stroke-width:0.75;stroke-linecap:round;stroke-linejoin:round;stroke-miterlimit:10;" d="
					M168.614,427.279c-7.308,3.185-20.013,16.105-24.926,29.509"/>
				<path style="fill:#2E2854;" d="M181.153,426.154c-2.535,2.471-6.186,3.752-9.709,3.408c-0.742-0.073-1.492-0.219-2.149-0.571
					c-0.658-0.353-1.219-0.938-1.41-1.66c-0.344-1.291,0.548-2.589,1.555-3.469c2.147-1.877,5.076-2.828,7.916-2.572
					c1.293,0.117,2.635,0.518,3.497,1.489C181.711,423.75,181.905,425.422,181.153,426.154z"/>
				<path style="fill:#6069CC;" d="M182.758,424.887c0.448,0.208,0.855,0.569,0.98,1.045c0.125,0.479-0.121,1.063-0.595,1.197
					c-0.337,0.096-0.706-0.048-0.967-0.28c-0.262-0.233-0.437-0.545-0.607-0.852c-0.291,0.332-0.636,0.616-1.018,0.837
					c-0.296,0.171-0.66,0.304-0.973,0.167c-0.357-0.155-0.496-0.623-0.389-0.998c0.106-0.376,0.397-0.67,0.702-0.913
					c0.306-0.243,0.641-0.456,0.892-0.754c-0.563-0.143-1.056-0.541-1.317-1.06c-0.184-0.366-0.23-0.864,0.071-1.143
					c0.259-0.241,0.667-0.217,1.009-0.121c0.628,0.177,1.198,0.554,1.608,1.062c0.173-0.443,0.362-0.908,0.73-1.209
					c0.369-0.302,0.978-0.367,1.293-0.01c0.28,0.317,0.217,0.808,0.067,1.204C183.981,423.75,183.494,424.355,182.758,424.887z"/>
			</g>
			<g style="clip-path:url(#SVGID_00000031925114019526184160000015138131544979820433_);">
				<g>
					<path style="fill:none;stroke:#FFF982;stroke-linecap:round;stroke-linejoin:round;stroke-miterlimit:10;" d="M412.677,405.06
						c-3.796-5.291-5.738-11.884-5.418-18.387"/>
					<path style="fill:#FFF982;" d="M406.896,384.472c-0.594,0.287-0.944,1.005-0.803,1.649c0.141,0.644,0.759,1.15,1.418,1.163
						c0.452,0.009,0.923-0.224,1.119-0.632c0.228-0.476,0.043-1.049-0.23-1.499c-0.167-0.274-0.372-0.533-0.648-0.696
						C407.476,384.297,407.12,384.246,406.896,384.472z"/>
				</g>
				<g>
					<path style="fill:none;stroke:#FFF982;stroke-linecap:round;stroke-linejoin:round;stroke-miterlimit:10;" d="M417.709,404.653
						c1.518-5.93,1.89-12.15,1.089-18.218"/>
					<path style="fill:#FFF982;" d="M417.957,384.439c-0.759,0.29-1.094,1.334-0.67,2.028c0.422,0.693,1.471,0.883,2.131,0.409
						c0.658-0.476,0.818-1.5,0.361-2.172C419.322,384.032,418.341,383.796,417.957,384.439z"/>
				</g>
				<g>
					<path style="fill:none;stroke:#FFF982;stroke-linecap:round;stroke-linejoin:round;stroke-miterlimit:10;" d="M424.654,405.262
						c4.141-5.093,7.426-10.879,9.678-17.045"/>
					<path style="fill:#FFF982;" d="M434.339,386.592c-0.61,0.105-1.034,0.808-0.859,1.401c0.176,0.594,0.895,0.953,1.481,0.753
						c0.586-0.2,0.935-0.908,0.754-1.5C435.533,386.656,434.948,386.487,434.339,386.592z"/>
				</g>
				
					<path style="fill:none;stroke:#2E2854;stroke-width:0.75;stroke-linecap:round;stroke-linejoin:round;stroke-miterlimit:10;" d="
					M417.847,415.864c-0.746,8.059-0.746,28.103,2.191,40.183"/>
				<path style="fill:#6069CC;" d="M412.493,413.704c-4.712-3.578-9.231-9.288-11.877-14.58c-0.8-1.599-1.295-3.975,0.286-4.811
					c1.348-0.712,2.893,0.456,3.944,1.561c2.752,2.895,5.332,5.952,7.723,9.151c-1.942-5.039-2.65-10.548-2.047-15.915
					c0.115-1.016,0.406-2.201,1.357-2.577c1.365-0.539,2.587,1.03,3.163,2.38c1.959,4.6,3.038,9.574,3.161,14.573
					c1.294-5.585,3.822-10.88,7.352-15.398c0.642-0.821,1.509-1.698,2.541-1.551c1.505,0.214,1.823,2.239,1.669,3.751
					c-0.468,4.587-1.772,9.088-3.829,13.214c2.648-2.631,5.723-4.831,9.068-6.489c0.943-0.467,2.005-0.901,3.021-0.626
					c1.425,0.386,2.162,2.089,1.945,3.55c-0.217,1.461-1.139,2.709-2.084,3.843c-3.305,3.964-7.349,7.422-12.121,9.385
					C420.99,415.129,418.016,417.897,412.493,413.704z"/>
				<path style="fill:#2E2854;" d="M415.823,416.148c-2.997-1.225-4.595-4.1-6.229-6.894c-0.299-0.512-0.551-1.243-0.101-1.628
					c0.41-0.349,1.035-0.085,1.491,0.205c1.651,1.048,3.172,2.304,4.514,3.728c-0.464-1.943-0.651-3.952-0.556-5.947
					c0.018-0.375,0.102-0.828,0.454-0.957c0.424-0.155,0.811,0.291,1.031,0.685c0.973,1.743,1.666,3.642,2.046,5.602
					c0.669-2.046,1.61-4.003,2.79-5.804c0.236-0.36,0.576-0.759,1.003-0.696c0.495,0.073,0.672,0.689,0.708,1.188
					c0.129,1.82-0.181,3.669-0.898,5.346c1.103-1.023,2.38-1.857,3.759-2.458c0.441-0.192,0.964-0.358,1.387-0.127
					c0.382,0.207,0.548,0.689,0.5,1.121c-0.047,0.432-0.268,0.823-0.503,1.189C424.735,414.578,419.795,417.772,415.823,416.148z"/>
			</g>
			<g style="clip-path:url(#SVGID_00000031925114019526184160000015138131544979820433_);">
				<g>
					<path style="fill:none;stroke:#FFF982;stroke-linecap:round;stroke-linejoin:round;stroke-miterlimit:10;" d="M481.245,416.505
						c-2.337-6.077-2.552-12.948-0.601-19.159"/>
					<path style="fill:#FFF982;" d="M480.848,395.124c-0.647,0.128-1.167,0.734-1.193,1.393s0.444,1.305,1.078,1.484
						c0.435,0.122,0.95,0.017,1.242-0.329c0.34-0.403,0.307-1.004,0.156-1.509c-0.092-0.307-0.225-0.609-0.451-0.837
						C481.454,395.101,481.122,394.961,480.848,395.124z"/>
				</g>
				<g>
					<path style="fill:none;stroke:#FFF982;stroke-linecap:round;stroke-linejoin:round;stroke-miterlimit:10;" d="M486.216,417.381
						c2.966-5.354,4.896-11.279,5.653-17.354"/>
					<path style="fill:#FFF982;" d="M491.559,397.884c-0.808,0.089-1.395,1.015-1.16,1.793c0.233,0.777,1.201,1.226,1.958,0.934
						c0.757-0.294,1.171-1.245,0.898-2.01C492.982,397.835,492.093,397.358,491.559,397.884z"/>
				</g>
				<g>
					<path style="fill:none;stroke:#FFF982;stroke-linecap:round;stroke-linejoin:round;stroke-miterlimit:10;" d="M492.782,419.723
						c5.292-3.882,9.932-8.652,13.667-14.049"/>
					<path style="fill:#FFF982;" d="M506.867,404.103c-0.617-0.052-1.204,0.521-1.185,1.139c0.02,0.619,0.626,1.149,1.243,1.103
						c0.617-0.046,1.134-0.643,1.108-1.261C508.006,404.466,507.482,404.155,506.867,404.103z"/>
				</g>
				
					<path style="fill:none;stroke:#2E2854;stroke-width:0.75;stroke-linecap:round;stroke-linejoin:round;stroke-miterlimit:10;" d="
					M483.52,428.263c-2.757,7.61-7.816,27.005-8.024,39.435"/>
				<path style="fill:#6069CC;" d="M478.884,424.822c-3.657-4.651-6.587-11.318-7.812-17.106c-0.37-1.75-0.249-4.173,1.491-4.583
					c1.484-0.349,2.684,1.172,3.422,2.506c1.932,3.495,3.657,7.105,5.163,10.804c-0.607-5.366,0.098-10.876,2.037-15.916
					c0.367-0.955,0.948-2.028,1.963-2.151c1.457-0.177,2.243,1.65,2.459,3.101c0.734,4.946,0.522,10.031-0.62,14.899
					c2.661-5.077,6.445-9.563,11-13.043c0.828-0.633,1.889-1.262,2.85-0.859c1.402,0.587,1.199,2.626,0.668,4.05
					c-1.61,4.321-4.009,8.346-7.041,11.82c3.226-1.877,6.757-3.23,10.412-3.99c1.03-0.214,2.168-0.366,3.081,0.157
					c1.281,0.733,1.564,2.567,0.986,3.926c-0.579,1.359-1.786,2.334-2.987,3.193c-4.198,3.001-8.984,5.326-14.098,6.021
					C486.746,428.346,483.17,430.274,478.884,424.822z"/>
				<path style="fill:#2E2854;" d="M481.49,428.028c-2.591-1.942-3.411-5.127-4.287-8.243c-0.16-0.571-0.22-1.342,0.313-1.601
					c0.485-0.235,1.023,0.179,1.391,0.574c1.333,1.431,2.487,3.03,3.427,4.747c0.042-1.997,0.367-3.988,0.963-5.895
					c0.113-0.359,0.307-0.776,0.681-0.811c0.449-0.043,0.711,0.486,0.824,0.923c0.501,1.933,0.693,3.945,0.565,5.937
					c1.164-1.811,2.568-3.467,4.165-4.912c0.319-0.289,0.749-0.589,1.146-0.42c0.461,0.195,0.477,0.837,0.385,1.329
					c-0.334,1.794-1.102,3.505-2.219,4.946c1.325-0.711,2.772-1.196,4.257-1.429c0.476-0.075,1.023-0.103,1.374,0.227
					c0.317,0.297,0.356,0.805,0.201,1.211c-0.155,0.406-0.467,0.729-0.787,1.024C490.509,428.759,484.923,430.601,481.49,428.028z"
					/>
			</g>
			<g style="clip-path:url(#SVGID_00000031925114019526184160000015138131544979820433_);">
				<g>
					<path style="fill:none;stroke:#FFF982;stroke-linecap:round;stroke-linejoin:round;stroke-miterlimit:10;" d="M156.9,398.465
						c-2.337-6.077-2.552-12.948-0.601-19.159"/>
					<path style="fill:#FFF982;" d="M156.504,377.084c-0.647,0.128-1.167,0.734-1.193,1.393c-0.026,0.659,0.444,1.305,1.078,1.484
						c0.435,0.122,0.95,0.017,1.242-0.329c0.34-0.403,0.307-1.004,0.156-1.508c-0.092-0.307-0.225-0.609-0.451-0.837
						C157.109,377.061,156.777,376.922,156.504,377.084z"/>
				</g>
				<g>
					<path style="fill:none;stroke:#FFF982;stroke-linecap:round;stroke-linejoin:round;stroke-miterlimit:10;" d="M161.872,399.341
						c2.966-5.354,4.896-11.279,5.653-17.353"/>
					<path style="fill:#FFF982;" d="M167.214,379.845c-0.808,0.089-1.395,1.014-1.16,1.793c0.233,0.777,1.201,1.226,1.958,0.934
						c0.757-0.294,1.171-1.245,0.898-2.01C168.638,379.795,167.748,379.319,167.214,379.845z"/>
				</g>
				<g>
					<path style="fill:none;stroke:#FFF982;stroke-linecap:round;stroke-linejoin:round;stroke-miterlimit:10;" d="M168.438,401.684
						c5.292-3.882,9.932-8.652,13.667-14.049"/>
					<path style="fill:#FFF982;" d="M182.523,386.064c-0.617-0.052-1.204,0.521-1.185,1.139c0.02,0.619,0.626,1.149,1.243,1.103
						c0.617-0.046,1.134-0.643,1.108-1.261C183.661,386.426,183.138,386.115,182.523,386.064z"/>
				</g>
				
					<path style="fill:none;stroke:#2E2854;stroke-width:0.75;stroke-linecap:round;stroke-linejoin:round;stroke-miterlimit:10;" d="
					M159.175,410.224c-2.756,7.61-7.816,27.005-8.023,39.435"/>
				<path style="fill:#C2BADB;" d="M154.539,406.782c-3.657-4.651-6.587-11.318-7.812-17.106c-0.37-1.75-0.249-4.173,1.491-4.583
					c1.484-0.349,2.684,1.172,3.422,2.506c1.932,3.495,3.657,7.105,5.163,10.804c-0.607-5.366,0.098-10.876,2.037-15.916
					c0.367-0.955,0.948-2.028,1.963-2.151c1.457-0.177,2.243,1.65,2.459,3.101c0.734,4.946,0.522,10.031-0.62,14.899
					c2.661-5.077,6.445-9.563,11-13.043c0.828-0.633,1.889-1.262,2.85-0.859c1.402,0.587,1.199,2.626,0.668,4.05
					c-1.611,4.321-4.009,8.346-7.041,11.82c3.226-1.877,6.757-3.23,10.412-3.99c1.03-0.214,2.168-0.366,3.081,0.157
					c1.281,0.733,1.564,2.567,0.986,3.926c-0.578,1.359-1.786,2.334-2.986,3.193c-4.198,3.002-8.984,5.326-14.098,6.021
					C162.402,410.306,158.825,412.234,154.539,406.782z"/>
				<path style="fill:#2E2854;" d="M157.145,409.988c-2.591-1.942-3.411-5.127-4.287-8.243c-0.16-0.571-0.22-1.342,0.314-1.601
					c0.485-0.235,1.023,0.179,1.391,0.574c1.333,1.431,2.487,3.03,3.427,4.747c0.042-1.997,0.367-3.988,0.963-5.895
					c0.112-0.359,0.307-0.776,0.681-0.811c0.449-0.043,0.711,0.486,0.825,0.923c0.501,1.933,0.693,3.945,0.565,5.937
					c1.164-1.811,2.568-3.467,4.164-4.912c0.32-0.289,0.749-0.589,1.146-0.42c0.461,0.195,0.477,0.837,0.385,1.329
					c-0.334,1.794-1.102,3.505-2.219,4.946c1.326-0.711,2.771-1.196,4.258-1.429c0.476-0.075,1.023-0.103,1.374,0.227
					c0.317,0.297,0.356,0.805,0.201,1.211c-0.155,0.406-0.467,0.729-0.787,1.024C166.165,410.719,160.578,412.561,157.145,409.988z"
					/>
			</g>
			<g style="clip-path:url(#SVGID_00000031925114019526184160000015138131544979820433_);">
				<g>
					<path style="fill:none;stroke:#FFF982;stroke-linecap:round;stroke-linejoin:round;stroke-miterlimit:10;" d="M588.736,368.349
						c-4.903-4.284-8.3-10.259-9.474-16.664"/>
					<path style="fill:#FFF982;" d="M578.406,349.625c-0.512,0.415-0.689,1.194-0.405,1.789c0.284,0.595,1.001,0.947,1.646,0.809
						c0.442-0.095,0.848-0.428,0.945-0.87c0.113-0.515-0.197-1.031-0.567-1.407c-0.225-0.229-0.484-0.434-0.79-0.529
						C578.931,349.322,578.572,349.353,578.406,349.625z"/>
				</g>
				<g>
					<path style="fill:none;stroke:#FFF982;stroke-linecap:round;stroke-linejoin:round;stroke-miterlimit:10;" d="M593.542,366.803
						c0.124-6.119-0.935-12.261-3.1-17.986"/>
					<path style="fill:#FFF982;" d="M589.167,347.067c-0.673,0.456-0.76,1.548-0.19,2.127c0.569,0.579,1.634,0.523,2.168-0.088
						c0.532-0.613,0.454-1.647-0.144-2.197C590.403,346.358,589.394,346.352,589.167,347.067z"/>
				</g>
				<g>
					<path style="fill:none;stroke:#FFF982;stroke-linecap:round;stroke-linejoin:round;stroke-miterlimit:10;" d="M600.442,365.81
						c2.868-5.904,4.746-12.288,5.53-18.805"/>
					<path style="fill:#FFF982;" d="M605.608,345.422c-0.57,0.242-0.822,1.023-0.516,1.56c0.307,0.538,1.089,0.724,1.614,0.395
						c0.524-0.328,0.703-1.098,0.392-1.632C606.784,345.211,606.177,345.18,605.608,345.422z"/>
				</g>
				
					<path style="fill:none;stroke:#2E2854;stroke-width:0.75;stroke-linecap:round;stroke-linejoin:round;stroke-miterlimit:10;" d="
					M596.236,377.686c1.114,8.017,5.691,27.531,11.31,38.621"/>
				<path style="fill:#C2BADB;" d="M590.53,376.806c-5.405-2.407-11.108-6.935-14.893-11.482c-1.144-1.375-2.168-3.574-0.82-4.749
					c1.15-1.001,2.921-0.217,4.196,0.619c3.34,2.19,6.55,4.577,9.609,7.145c-3.041-4.462-4.989-9.664-5.627-15.027
					c-0.121-1.016-0.108-2.236,0.732-2.819c1.206-0.836,2.754,0.412,3.622,1.595c2.958,4.031,5.144,8.627,6.405,13.466
					c-0.016-5.732,1.236-11.466,3.641-16.67c0.437-0.946,1.082-1.997,2.12-2.09c1.514-0.136,2.286,1.763,2.482,3.27
					c0.592,4.573,0.35,9.252-0.71,13.74c1.977-3.166,4.468-6.011,7.346-8.388c0.811-0.67,1.747-1.335,2.798-1.299
					c1.475,0.051,2.582,1.54,2.704,3.012c0.123,1.472-0.49,2.898-1.151,4.217c-2.312,4.614-5.46,8.904-9.658,11.906
					C599.128,376.253,596.865,379.627,590.53,376.806z"/>
				<path style="fill:#2E2854;" d="M594.331,378.425c-3.198-0.508-5.41-2.942-7.639-5.29c-0.408-0.43-0.821-1.084-0.47-1.562
					c0.319-0.434,0.989-0.319,1.498-0.141c1.847,0.644,3.614,1.519,5.246,2.599c-0.895-1.786-1.537-3.699-1.9-5.663
					c-0.068-0.37-0.09-0.83,0.223-1.035c0.377-0.248,0.856,0.098,1.16,0.431c1.345,1.475,2.454,3.165,3.271,4.987
					c0.184-2.145,0.653-4.265,1.39-6.288c0.148-0.404,0.388-0.871,0.818-0.907c0.498-0.042,0.812,0.518,0.961,0.995
					c0.542,1.742,0.661,3.614,0.346,5.41c0.84-1.247,1.893-2.351,3.098-3.251c0.386-0.288,0.857-0.568,1.321-0.441
					c0.419,0.115,0.691,0.546,0.743,0.977c0.052,0.431-0.073,0.863-0.218,1.273C602.649,374.862,598.569,379.099,594.331,378.425z"
					/>
			</g>
		</g>
	</g>
</g>
</svg>
